<svg width="466" height="466" viewBox="0 0 466 466" fill="none" xmlns="http://www.w3.org/2000/svg">
<path fill-rule="evenodd" clip-rule="evenodd" d="M378.193 450.789C398.24 470.836 430.742 470.836 450.789 450.789C470.836 430.741 470.836 398.24 450.789 378.193L305.596 233L450.789 87.8074C470.836 67.7599 470.836 35.2586 450.789 15.2111C430.742 -4.83634 398.24 -4.83634 378.193 15.2111L233 160.404L87.8075 15.2111C67.7604 -4.83598 35.2587 -4.83634 15.2112 15.2111C-4.83622 35.2586 -4.83586 67.7603 15.2112 87.8074L160.404 233L15.2112 378.193C-4.8355 398.239 -4.83622 430.741 15.2112 450.789C35.2587 470.836 67.7608 470.836 87.8075 450.789L233 305.596L378.193 450.789Z" fill="white"/>
</svg>
