<svg width="15" height="31" viewBox="0 0 15 31" fill="none" xmlns="http://www.w3.org/2000/svg">
<path d="M8.94885 7.25079C8.94885 7.56305 8.94885 8.58082 8.94885 10.0268H13.9202L13.3812 14.4584H8.94885C8.94885 21.2929 8.94885 30.4514 8.94885 30.4514H3.06558C3.06558 30.4514 3.06558 21.4141 3.06558 14.4584H0V10.0268H3.06558C3.06558 8.26927 3.06558 7.01957 3.06558 6.67161C3.06558 5.01377 2.94068 4.22716 3.64511 2.94248C4.34991 1.65785 6.33789 -0.0401557 9.77628 0.000724328C13.2155 0.0430941 14.6652 0.373948 14.6652 0.373948L13.9202 5.09702C13.9202 5.09702 11.7241 4.51713 10.6461 4.72379C9.56961 4.93052 8.94885 5.59366 8.94885 7.25079Z" fill="white"/>
</svg>
