<?xml version="1.0" encoding="UTF-8"?>
<svg id="Capa_2" data-name="Capa 2" xmlns="http://www.w3.org/2000/svg" xmlns:xlink="http://www.w3.org/1999/xlink" viewBox="0 0 74.42 85.56">
  <defs>
    <style>
      .cls-1 {
        fill: url(#Degradado_sin_nombre_5);
      }

      .cls-2 {
        fill: none;
      }
    </style>
    <linearGradient id="Degradado_sin_nombre_5" data-name="Degradado sin nombre 5" x1="2.76" y1="20.5" x2="67.33" y2="57.49" gradientUnits="userSpaceOnUse">
      <stop offset="0" stop-color="#121a29"/>
      <stop offset="1" stop-color="#20364e"/>
    </linearGradient>
  </defs>
  <g id="Capa_1-2" data-name="Capa 1">
    <g>
      <path class="cls-2" d="m38.28,32.01c-.15-.5-.32-.99-.48-1.49-.09.49-.22.98-.28,1.47-2.05,17.86-4.1,35.71-6.12,53.58h13.04c-2.01-17.66-4.05-35.31-6.09-52.96-.02-.2-.01-.41-.07-.6Z"/>
      <path class="cls-1" d="m37.52,31.99c.06-.49.18-.98.28-1.47.1.32.21.64.32.96.09.29.19.78.23,1.09,1.97,17.11,3.95,34.22,5.9,51.34.11.95.91,1.66,1.86,1.66h17.22c.91,0,1.67-.68,1.77-1.59.66-6.1,1.34-12.2,2.03-18.3,1.41-12.55,2.83-25.1,4.25-37.65.99-8.74,1.97-17.49,3.01-26.23.22-1.88-.61-1.93-3.03-1.68s-5.05.23-7.57,0c-2.02-.19-2.71-.09-2.87,1.57-1.4,14.44-2.88,28.88-4.34,43.32-.77,7.62-1.54,15.24-2.33,22.86-.03.28-.22.55-.33.83-.06-.26-.14-.51-.17-.77-1.48-13.83-2.97-27.66-4.44-41.49-.87-8.15-1.72-16.3-2.6-24.45-.1-.96-.01-1.93-1.64-1.88-4.72.15-9.44.1-14.16.08-.98,0-1.47.2-1.52,1.3-.07,1.54-.31,3.07-.47,4.61-1.43,13.77-2.85,27.54-4.28,41.3-.79,7.62-1.58,15.24-2.38,22.85-.03.31-.18.61-.27.91-.08-.32-.19-.63-.22-.96-.21-1.87-.41-3.74-.59-5.61-1.28-13.11-2.55-26.22-3.83-39.32-.75-7.76-1.54-15.51-2.24-23.28-.12-1.31-.57-1.75-1.77-1.72-2.2.17-5.41.18-6.26.18-1.9,0-3.79.04-5.68-.02C.23.36-.11.75.03,1.92c.74,6.54,1.42,13.09,2.12,19.64,1.43,13.36,2.86,26.72,4.29,40.08.81,7.62,1.63,15.25,2.43,22.88.06.6.57,1.05,1.17,1.05h20.11c.72,0,1.33-.54,1.41-1.26,1.97-17.44,3.98-34.88,5.98-52.32Z"/>
    </g>
  </g>
</svg>