<svg width="32" height="31" viewBox="0 0 32 31" fill="none" xmlns="http://www.w3.org/2000/svg">
<path fill-rule="evenodd" clip-rule="evenodd" d="M15.8909 23.5306C20.4775 23.5306 24.1958 19.8124 24.1958 15.2257C24.1958 10.639 20.4775 6.92078 15.8909 6.92078C11.3042 6.92078 7.58594 10.639 7.58594 15.2257C7.58594 19.8124 11.3042 23.5306 15.8909 23.5306ZM15.8909 20.7623C18.9486 20.7623 21.4275 18.2834 21.4275 15.2257C21.4275 12.1679 18.9486 9.68909 15.8909 9.68909C12.8331 9.68909 10.3542 12.1679 10.3542 15.2257C10.3542 18.2834 12.8331 20.7623 15.8909 20.7623Z" fill="white"/>
<path d="M24.1957 5.53665C23.4312 5.53665 22.8115 6.15636 22.8115 6.92081C22.8115 7.68525 23.4312 8.30496 24.1957 8.30496C24.9601 8.30496 25.5798 7.68525 25.5798 6.92081C25.5798 6.15636 24.9601 5.53665 24.1957 5.53665Z" fill="white"/>
<path fill-rule="evenodd" clip-rule="evenodd" d="M1.57022 4.53457C0.665039 6.31109 0.665039 8.63669 0.665039 13.2879V17.1635C0.665039 21.8147 0.665039 24.1403 1.57022 25.9167C2.36644 27.4795 3.63693 28.75 5.19961 29.5461C6.97613 30.4514 9.30173 30.4514 13.9529 30.4514H17.8285C22.4797 30.4514 24.8054 30.4514 26.5818 29.5461C28.1445 28.75 29.415 27.4795 30.2112 25.9167C31.1164 24.1403 31.1164 21.8147 31.1164 17.1635V13.2879C31.1164 8.63669 31.1164 6.31109 30.2112 4.53457C29.415 2.97189 28.1445 1.7014 26.5818 0.905181C24.8054 0 22.4797 0 17.8285 0H13.9529C9.30173 0 6.97613 0 5.19961 0.905181C3.63693 1.7014 2.36644 2.97189 1.57022 4.53457ZM17.8285 2.76831H13.9529C11.5816 2.76831 9.96966 2.77047 8.72369 2.87226C7.51001 2.97142 6.88936 3.15115 6.45639 3.37176C5.41461 3.90258 4.56762 4.74957 4.0368 5.79135C3.81619 6.22432 3.63646 6.84497 3.5373 8.05865C3.4355 9.30463 3.43335 10.9166 3.43335 13.2879V17.1635C3.43335 19.5348 3.4355 21.1467 3.5373 22.3927C3.63646 23.6065 3.81619 24.2271 4.0368 24.6601C4.56762 25.7018 5.41461 26.5488 6.45639 27.0796C6.88936 27.3002 7.51001 27.48 8.72369 27.5791C9.96966 27.6809 11.5816 27.6831 13.9529 27.6831H17.8285C20.1999 27.6831 21.8117 27.6809 23.0577 27.5791C24.2715 27.48 24.8922 27.3002 25.3251 27.0796C26.3668 26.5488 27.2138 25.7018 27.7446 24.6601C27.9652 24.2271 28.1451 23.6065 28.2442 22.3927C28.3459 21.1467 28.3481 19.5348 28.3481 17.1635V13.2879C28.3481 10.9166 28.3459 9.30463 28.2442 8.05865C28.1451 6.84497 27.9652 6.22432 27.7446 5.79135C27.2138 4.74957 26.3668 3.90258 25.3251 3.37176C24.8922 3.15115 24.2715 2.97142 23.0577 2.87226C21.8117 2.77047 20.1999 2.76831 17.8285 2.76831Z" fill="white"/>
</svg>
