<?xml version="1.0" encoding="UTF-8"?>
<svg id="Capa_2" data-name="Capa 2" xmlns="http://www.w3.org/2000/svg" viewBox="0 0 212.51 67.14">
  <defs>
    <style>
      .cls-1 {
        fill: #fff;
      }
    </style>
  </defs>
  <g id="Capa_1-2" data-name="Capa 1">
    <g>
      <path class="cls-1" d="m21.66,36.09c.22,0,.35,0,.35,0h-.35Z"/>
      <g>
        <g id="Capa_1-2" data-name="Capa 1-2">
          <g id="LOGO_IWATCH" data-name="LOGO IWATCH">
            <path class="cls-1" d="m212.48,34.4c0,10.47-.02,20.94.03,31.41,0,1.15-.25,1.44-1.4,1.25-2.71-.45-5.45-.82-8.18-1.11-1.13-.12-.85-.83-.85-1.45-.01-8.76-.03-17.51.02-26.27,0-1.19-.28-1.6-1.52-1.64-2.8-.11-5.6-.34-8.38-.64-1.14-.12-1.38.24-1.37,1.29.03,8.48.02,16.97.02,25.45,0,1.16-.57,1.66-1.71,1.52-2.51-.31-5.01-.71-7.53-.88-1.18-.08-1.25-.59-1.25-1.52.02-7.36.01-14.71.01-22.07,0-12.46.01-24.91-.02-37.37,0-1.11.26-1.47,1.41-1.42,2.58.11,5.16.12,7.74.07,1.07-.02,1.37.32,1.37,1.38-.04,7.63,0,15.25-.05,22.88-.01,1.32.37,1.66,1.66,1.68,2.76.04,5.51.24,8.26.47,1.1.09,1.37-.21,1.36-1.29-.04-7.81,0-15.61-.05-23.42,0-1.19.23-1.64,1.53-1.58,2.53.13,5.07.12,7.6.05,1.12-.03,1.33.37,1.33,1.39-.03,10.61-.02,21.21-.02,31.82h0Z"/>
            <path class="cls-1" d="m127.97,34.24c0,7.9-.04,15.79.04,23.69.01,1.37-.51,1.54-1.63,1.48-2.48-.12-4.97-.23-7.45-.2-1.16.02-1.41-.36-1.4-1.45.04-9.97.02-19.94.02-29.92,0-5.82-.02-11.64.02-17.46,0-.99-.23-1.33-1.28-1.31-2.8.07-5.61-.01-8.42.05-.97.02-1.37-.18-1.33-1.25.09-2.03.05-4.06.01-6.09-.01-.74.21-1.04,1-1.04,10.14.04,20.27.07,30.41.08.7,0,.95.25.94.95-.03,2.17-.05,4.33,0,6.5.02.89-.37,1.04-1.14,1.02-2.85-.07-5.7-.03-8.55-.15-1.06-.04-1.28.3-1.27,1.28.04,7.94.02,15.88.02,23.83h0Z"/>
            <path class="cls-1" d="m.02,34.26C.02,23.7.04,13.14,0,2.58,0,1.57.2,1.16,1.32,1.2c2.49.08,4.98.08,7.47-.04,1.35-.07,1.75.26,1.74,1.68-.06,12.82-.04,25.63-.04,38.45,0,7.72-.02,15.43.02,23.15,0,1.07-.26,1.47-1.38,1.58-2.6.25-5.2.62-7.78,1.07C.15,67.29,0,66.9,0,65.81c.04-10.52.02-21.03.02-31.55Z"/>
          </g>
        </g>
        <path class="cls-1" d="m64.59.86c-2.22.07-4.44.06-6.65.02-.83-.02-1.15.2-1.24,1.1-.94,9.7-1.94,19.39-2.92,29.08-.52,5.12-1.04,10.23-1.56,15.35-.02.19-.14.37-.22.55-.04-.17-.1-.34-.12-.52-1-9.28-1.99-18.57-2.98-27.85-.58-5.47-1.16-10.94-1.75-16.42-.07-.65,0-1.3-1.1-1.27-3.17.1-6.34.07-9.5.05-.66,0-.99.14-1.02.87-.05,1.03-.21,2.06-.32,3.1-.96,9.24-1.92,18.49-2.88,27.73-.53,5.11-1.06,10.23-1.6,15.34-.02.21-.12.41-.18.61-.05-.21-.13-.42-.15-.64-.14-1.26-.27-2.51-.39-3.77-.86-8.8-1.71-17.6-2.57-26.4-.51-5.21-1.04-10.41-1.5-15.63-.08-.88-.38-1.18-1.19-1.16-1.48.12-3.63.12-4.2.12-1.27,0-2.55.03-3.82-.01-.78-.03-1,.23-.92,1.01.5,4.39.95,8.79,1.42,13.19.96,8.97,1.92,17.94,2.88,26.91.75,7,1.5,13.99,2.23,20.99.08.78.33,1.09,1.19.99,3.9-.48,7.8-.93,11.71-1.31.94-.09,1.16-.47,1.26-1.32,1.48-13.09,2.98-26.17,4.48-39.26.04-.33.12-.66.19-.99.11.33.22.66.32,1,.04.13.03.27.05.4,1.46,12.68,2.93,25.36,4.37,38.04.1.87.48,1.02,1.24.95,3.69-.33,7.37-.65,11.06-.91.7-.05.92-.3.99-.95.53-4.98,1.09-9.95,1.65-14.93.95-8.43,1.9-16.85,2.85-25.28.67-5.87,1.32-11.74,2.02-17.61.12-1-.21-1.23-1.15-1.2Z"/>
        <g>
          <path class="cls-1" d="m89.8,39.93s-.06,0-.1,0c.03,0,.07,0,.1,0Z"/>
          <path class="cls-1" d="m103.96,57.32c-.7-3.72-1.39-7.44-2.09-11.16-2.74-14.75-5.48-29.51-8.2-44.26-.16-.86-.49-1.17-1.41-1.16-3.93.07-7.87.08-11.81.04-1.01-.01-1.27.38-1.43,1.29-.9,5.15-1.88,10.28-2.82,15.43-2.51,13.79-5,27.58-7.56,41.36-.22,1.18.18,1.27,1.12,1.21,2.43-.15,4.87-.3,7.31-.35.88-.02,1.13-.31,1.25-1.14.46-3.12,1.06-6.22,1.5-9.34.13-.94.51-1.18,1.37-1.2,3.25-.06,6.5-.15,9.76-.28.81-.03,1.07.27,1.19,1.06.47,3.16,1.06,6.31,1.53,9.48.1.69.38.88.9.9,1.66-.04,3.56-.06,4.32-.07h0c.12,0,.23,0,.35,0h3.31c1.76,0,1.75,0,1.41-1.79Zm-13.84-17.46s0,0,0,0c-.04.02-.15.04-.32.06-.03,0-.06,0-.1,0-1.13.09-4.1.07-4.1.07,0,0,0,0,0,0-1.14,0-2.28-.02-3.41.01-.73.02-.89-.19-.77-.94,1-6.22,1.96-12.45,2.93-18.68.44-2.8.87-5.61,1.32-8.41.04-.24.22-.46.34-.69.05.22.11.43.15.65,1.44,8.89,2.87,17.78,4.34,26.66.12.71.04,1.1-.37,1.25Z"/>
          <path class="cls-1" d="m90.12,39.87s0,0,0,0c-.09.03-.2.06-.32.07.17-.02.28-.04.32-.06Z"/>
        </g>
        <path class="cls-1" d="m172.93,39.47c-2.44-.1-4.89-.16-7.31-.41-1.25-.13-1.41.31-1.41,1.38.03,3.02,0,6.05-.11,9.06-.05,1.46-.67,2.72-2.05,3.44-3.36,1.76-7.64-.36-8.21-4.08-.09-.58-.08-1.17-.08-1.76,0-10.83,0-21.66,0-32.49,0-.54,0-1.09.07-1.62.4-2.93,2.09-4.38,5.06-4.35,3.14.02,4.98,1.52,5.21,4.5.18,2.38.14,4.78.12,7.17,0,.81.26,1.12,1.07,1.14,2.67.07,5.33.2,8,.25.27,0,.79-.44.79-.67-.05-3.2.1-6.43-.33-9.59-.78-5.79-4.53-9.65-10.23-10.88-3.49-.75-7.03-.75-10.49.16-4.94,1.3-8.09,4.46-9.23,9.44-.36,1.56-.44,3.22-.45,4.83-.05,5.14-.02,10.29-.02,15.43h0s-.5,18.32.59,21.14c0,.01,0,.02.01.03.87,3.37,2.95,6.12,6.3,8.01,4.04,2.29,8.45,2.8,12.97,2.36,6.08-.59,10.05-4.43,10.64-10.53.34-3.54.17-7.12.31-10.68.04-.96-.33-1.25-1.21-1.29Z"/>
      </g>
    </g>
  </g>
</svg>