<svg width="800" height="800" viewBox="0 0 800 800" fill="none" xmlns="http://www.w3.org/2000/svg">
<path fill-rule="evenodd" clip-rule="evenodd" d="M563.375 422L421.975 563.501C415.975 569.501 407.775 571.251 400 569.751C392.225 571.251 384.025 569.501 378.025 563.501L236.625 422C226.85 412.25 226.85 396.499 236.625 386.499C246.375 376.749 262.2 376.749 271.975 386.499L375 489.749V225C375 211.25 386.2 200 400 200C413.825 200 425 211.25 425 225V489.749L528.025 386.499C537.8 376.749 553.65 376.749 563.375 386.499C573.15 396.499 573.15 412.25 563.375 422ZM400 0C179.075 0 0 179 0 400C0 621 179.075 800 400 800C620.925 800 800 621 800 400C800 179 620.925 0 400 0Z" fill="#333333"/>
</svg>
