<svg width="800" height="749" viewBox="0 0 800 749" fill="none" xmlns="http://www.w3.org/2000/svg">
<g clip-path="url(#clip0_83_9)">
<mask id="mask0_83_9" style="mask-type:luminance" maskUnits="userSpaceOnUse" x="0" y="0" width="800" height="800">
<path d="M800 0H0V800H800V0Z" fill="white"/>
</mask>
<g mask="url(#mask0_83_9)">
<path opacity="0.2" fill-rule="evenodd" clip-rule="evenodd" d="M400 75C313.805 75 231.14 109.241 170.19 170.19C109.241 231.14 75 313.805 75 400C75 486.195 109.241 568.86 170.19 629.81C231.14 690.759 313.805 725 400 725C486.195 725 568.86 690.759 629.81 629.81C690.759 568.86 725 486.195 725 400C725 313.805 690.759 231.14 629.81 170.19C568.86 109.241 486.195 75 400 75ZM0 400C0 293.913 42.1427 192.172 117.157 117.157C192.172 42.1427 293.913 0 400 0C506.087 0 607.828 42.1427 682.843 117.157C757.857 192.172 800 293.913 800 400C800 506.087 757.857 607.828 682.843 682.843C607.828 757.857 506.087 800 400 800C293.913 800 192.172 757.857 117.157 682.843C42.1427 607.828 0 506.087 0 400Z" fill="url(#paint0_linear_83_9)"/>
<path fill-rule="evenodd" clip-rule="evenodd" d="M362.5 37.5C362.5 27.5544 366.451 18.0161 373.483 10.9835C380.516 3.95088 390.054 0 400 0C506.087 0 607.828 42.1427 682.843 117.157C757.857 192.172 800 293.913 800 400C800 409.946 796.049 419.484 789.016 426.516C781.984 433.549 772.446 437.5 762.5 437.5C752.554 437.5 743.016 433.549 735.984 426.516C728.951 419.484 725 409.946 725 400C725 313.805 690.759 231.14 629.81 170.19C568.86 109.241 486.195 75 400 75C390.054 75 380.516 71.0491 373.483 64.0165C366.451 56.9839 362.5 47.4456 362.5 37.5Z" fill="white"/>
</g>
</g>
<defs>
<linearGradient id="paint0_linear_83_9" x1="400" y1="0" x2="400" y2="800" gradientUnits="userSpaceOnUse">
<stop stop-color="white"/>
<stop offset="1" stop-color="#666666"/>
</linearGradient>
<clipPath id="clip0_83_9">
<rect width="800" height="749" fill="white"/>
</clipPath>
</defs>
</svg>
