<svg width="616" height="616" viewBox="0 0 616 616" fill="none" xmlns="http://www.w3.org/2000/svg">
<path fill-rule="evenodd" clip-rule="evenodd" d="M256.667 564.667C256.667 593.018 279.649 616 308 616C336.351 616 359.333 593.018 359.333 564.667V359.333H564.667C593.018 359.333 616 336.351 616 308C616 279.649 593.018 256.667 564.667 256.667H359.333V51.3333C359.333 22.9824 336.351 0 308 0C279.649 0 256.667 22.9824 256.667 51.3333V256.667H51.3333C22.983 256.667 0 279.649 0 308C0 336.351 22.983 359.333 51.3333 359.333H256.667V564.667Z" fill="white"/>
</svg>
