<svg width="4053" height="2700" viewBox="0 0 4053 2700" fill="none" xmlns="http://www.w3.org/2000/svg">
<path d="M1094.44 596.983V11.3004C1094.44 5.25243 1089.53 0.349609 1083.49 0.349609L668.344 0.349609C662.296 0.349609 657.393 5.25243 657.393 11.3004V596.983C657.393 603.031 662.296 607.934 668.344 607.934H1083.49C1089.53 607.934 1094.44 603.031 1094.44 596.983Z" fill="#F0F3F8"/>
<path d="M3504.11 754.892H2790.56C2785.72 754.892 2781.08 752.969 2777.66 749.546C2774.23 746.123 2772.31 741.481 2772.31 736.641V125.115C2772.31 120.274 2770.39 115.632 2766.96 112.209C2763.54 108.786 2758.9 106.863 2754.06 106.863H1290.31C1285.47 106.863 1280.83 108.786 1277.4 112.209C1273.98 115.632 1272.06 120.274 1272.06 125.115V736.641C1272.06 741.481 1270.14 746.123 1266.71 749.546C1263.29 752.969 1258.65 754.892 1253.81 754.892H540.439C535.598 754.892 530.956 756.815 527.533 760.238C524.11 763.66 522.188 768.303 522.188 773.143V2032.7C522.188 2037.54 524.11 2042.18 527.533 2045.6C530.956 2049.03 535.598 2050.95 540.439 2050.95H1254.35C1259.19 2050.95 1263.84 2052.87 1267.26 2056.29C1270.68 2059.72 1272.61 2064.36 1272.61 2069.2V2680.73C1272.61 2685.57 1274.53 2690.21 1277.95 2693.63C1281.37 2697.05 1286.02 2698.98 1290.86 2698.98H2754.61C2759.45 2698.98 2764.09 2697.05 2767.51 2693.63C2770.93 2690.21 2772.86 2685.57 2772.86 2680.73V2069.2C2772.86 2064.36 2774.78 2059.72 2778.2 2056.29C2781.63 2052.87 2786.27 2050.95 2791.11 2050.95H3504.26C3509.1 2050.95 3513.74 2049.03 3517.16 2045.6C3520.59 2042.18 3522.51 2037.54 3522.51 2032.7V773.143C3522.51 770.734 3522.03 768.349 3521.11 766.125C3520.18 763.901 3518.82 761.882 3517.11 760.186C3515.4 758.489 3513.37 757.148 3511.14 756.239C3508.91 755.33 3506.52 754.873 3504.11 754.892Z" fill="#F0F3F8"/>
<path d="M3472.54 187.824H2886.86C2880.81 187.824 2875.9 192.727 2875.9 198.775V613.918C2875.9 619.966 2880.81 624.868 2886.86 624.868H3472.54C3478.59 624.868 3483.49 619.966 3483.49 613.918V198.775C3483.49 192.727 3478.59 187.824 3472.54 187.824Z" fill="#F0F3F8"/>
<path d="M3636.11 1767.55H2763.11C2757.06 1767.55 2752.16 1772.45 2752.16 1778.5V1839.49C2752.16 1845.54 2757.06 1850.44 2763.11 1850.44H3636.11C3642.15 1850.44 3647.06 1845.54 3647.06 1839.49V1778.5C3647.06 1772.45 3642.15 1767.55 3636.11 1767.55Z" fill="#A8B9DF"/>
<path d="M3584.13 1850.45H2815.13C2809.08 1850.45 2804.18 1855.35 2804.18 1861.4V2620.54C2804.18 2626.59 2809.08 2631.49 2815.13 2631.49H3584.13C3590.17 2631.49 3595.08 2626.59 3595.08 2620.54V1861.4C3595.08 1855.35 3590.17 1850.45 3584.13 1850.45Z" fill="#A8B9DF"/>
<path d="M3535.43 1767.55H2662.44C2656.39 1767.55 2651.49 1772.45 2651.49 1778.5V1839.49C2651.49 1845.54 2656.39 1850.44 2662.44 1850.44H3535.43C3541.48 1850.44 3546.38 1845.54 3546.38 1839.49V1778.5C3546.38 1772.45 3541.48 1767.55 3535.43 1767.55Z" fill="#C4CFE6"/>
<path d="M3484.51 1861.4V2620.65C3484.51 2623.55 3483.36 2626.34 3481.3 2628.39C3479.25 2630.45 3476.46 2631.6 3473.56 2631.6H2714.31C2711.4 2631.6 2708.62 2630.45 2706.56 2628.39C2704.51 2626.34 2703.36 2623.55 2703.36 2620.65V1861.4C2703.36 1858.49 2704.51 1855.71 2706.56 1853.65C2708.62 1851.6 2711.4 1850.45 2714.31 1850.45H3473.56C3476.46 1850.45 3479.25 1851.6 3481.3 1853.65C3483.36 1855.71 3484.51 1858.49 3484.51 1861.4Z" fill="#E7EBF6"/>
<path d="M3391.57 1931.52H2806.26C2800.21 1931.52 2795.31 1936.42 2795.31 1942.47V2086.87C2795.31 2092.92 2800.21 2097.82 2806.26 2097.82H3391.57C3397.62 2097.82 3402.53 2092.92 3402.53 2086.87V1942.47C3402.53 1936.42 3397.62 1931.52 3391.57 1931.52Z" fill="#C4CFE6"/>
<path d="M3391.57 2169.62H2806.26C2800.21 2169.62 2795.31 2174.53 2795.31 2180.57V2324.98C2795.31 2331.03 2800.21 2335.93 2806.26 2335.93H3391.57C3397.62 2335.93 3402.53 2331.03 3402.53 2324.98V2180.57C3402.53 2174.53 3397.62 2169.62 3391.57 2169.62Z" fill="#C4CFE6"/>
<path d="M3391.57 2407.69H2806.26C2800.21 2407.69 2795.31 2412.59 2795.31 2418.64V2563.04C2795.31 2569.09 2800.21 2573.99 2806.26 2573.99H3391.57C3397.62 2573.99 3402.53 2569.09 3402.53 2563.04V2418.64C3402.53 2412.59 3397.62 2407.69 3391.57 2407.69Z" fill="#C4CFE6"/>
<path d="M2997.93 1931.52H3200.05C3200.05 1942.65 3195.62 1953.33 3187.75 1961.2C3179.88 1969.07 3169.2 1973.49 3158.07 1973.49H3039.84C3028.72 1973.47 3018.06 1969.04 3010.2 1961.17C3002.35 1953.3 2997.93 1942.64 2997.93 1931.52ZM2997.93 2169.62H3200.05C3200.05 2180.75 3195.62 2191.43 3187.75 2199.3C3179.88 2207.18 3169.2 2211.6 3158.07 2211.6H3039.84C3028.7 2211.6 3018.03 2207.18 3010.15 2199.3C3002.28 2191.43 2997.86 2180.75 2997.86 2169.62H2997.93ZM2997.93 2407.69H3200.05C3200.05 2418.82 3195.62 2429.5 3187.75 2437.37C3179.88 2445.25 3169.2 2449.67 3158.07 2449.67H3039.84C3028.7 2449.67 3018.03 2445.25 3010.15 2437.37C3002.28 2429.5 2997.86 2418.82 2997.86 2407.69H2997.93Z" fill="#E7EBF6"/>
<path d="M2764.83 2698.98H2746.06C2743.47 2698.98 2740.97 2697.95 2739.13 2696.12C2737.29 2694.28 2736.25 2691.79 2736.25 2689.2V2631.49H2803.74L2773.73 2693.54C2772.91 2695.19 2771.63 2696.57 2770.06 2697.54C2768.48 2698.5 2766.67 2699 2764.83 2698.98Z" fill="#C4CFE6"/>
<path d="M2875.54 2698.98H2856.67C2854.07 2698.98 2851.58 2697.95 2849.75 2696.11C2847.92 2694.28 2846.88 2691.79 2846.88 2689.2V2631.49H2914.38L2884.37 2693.54C2883.55 2695.18 2882.29 2696.56 2880.73 2697.52C2879.17 2698.48 2877.37 2698.98 2875.54 2698.98Z" fill="#A8B9DF"/>
<path d="M3441.4 2698.98H3460.24C3461.52 2698.98 3462.8 2698.73 3463.99 2698.25C3465.18 2697.76 3466.26 2697.04 3467.18 2696.13C3468.09 2695.22 3468.81 2694.14 3469.31 2692.95C3469.8 2691.76 3470.05 2690.48 3470.05 2689.2V2631.49H3402.56L3432.57 2693.54C3433.39 2695.18 3434.65 2696.56 3436.21 2697.52C3437.77 2698.48 3439.57 2698.98 3441.4 2698.98Z" fill="#C4CFE6"/>
<path d="M3552.77 2698.98H3571.61C3572.89 2698.98 3574.17 2698.73 3575.36 2698.25C3576.55 2697.76 3577.63 2697.04 3578.55 2696.13C3579.46 2695.22 3580.18 2694.14 3580.68 2692.95C3581.17 2691.76 3581.42 2690.48 3581.42 2689.2V2631.49H3513.93L3543.94 2693.54C3544.76 2695.18 3546.02 2696.56 3547.58 2697.52C3549.14 2698.48 3550.94 2698.98 3552.77 2698.98Z" fill="#A8B9DF"/>
<path opacity="0.42" d="M3127.26 1850.45L2921.35 2631.49H2758.29L2964.2 1850.45H3127.26Z" fill="#F4F7FC"/>
<path opacity="0.42" d="M3477.79 1851.28L3272.07 2631.49H3005.6L3211.51 1850.33H3473.56C3475.02 1850.36 3476.46 1850.69 3477.79 1851.28Z" fill="#F4F7FC"/>
<path d="M581.468 2220.62C577.088 2220.62 571.941 2215.69 558.837 2177.58C532.409 2100.92 519.231 2062.41 529.416 2016.97C533.613 1998.28 542.009 1980.47 558.837 1944.55C572.489 1915.35 578.767 1907.13 588.258 1883.41C603.224 1846.1 601.07 1833.47 608.663 1813.25C635.309 1742.07 733.72 1707.39 742.225 1718.16C745.875 1722.69 731.785 1733.45 710.504 1772.47C697.263 1796.16 686.639 1821.21 678.82 1847.2C663.489 1901.73 682.106 1907.75 667.505 1964.92C660.204 1993.13 655.167 1994.12 640.347 2044.13C633.046 2068.73 632.645 2074.13 624.505 2105.27C604.976 2179.33 594.171 2220.62 581.468 2220.62ZM499.885 2125.53C491.855 2131.91 471.121 2104.94 400.27 2062.16C352.05 2032.96 291.712 2003.28 287.112 2001.02C240.097 1977.95 228.891 1975.25 212.428 1958.02C191.585 1936.12 196.623 1926.99 167.129 1885.56C144.315 1853.51 137.306 1853.4 119.675 1824.45C104.563 1799.71 86.8231 1762.62 94.7806 1756.52C98.4309 1753.68 106.607 1758.53 121.938 1767.84C144.899 1781.82 150.483 1789.92 164.938 1799.56C190.49 1816.46 195.783 1806.35 221.554 1822.19C231.92 1828.58 243.455 1840.77 266.817 1865.19C290.178 1889.61 290.543 1892.31 303.027 1903.66C320.95 1919.94 335.149 1927.98 350.481 1937.65C378.936 1955.33 406.112 1974.99 431.808 1996.49C485.321 2043.51 511.675 2116.22 499.885 2125.53Z" fill="#A8B9DF"/>
<path d="M111.207 1779.96C138.292 1806.5 165.085 1832.92 192.79 1858.37C199.653 1864.75 206.661 1871.03 213.633 1877.31C220.605 1883.59 227.614 1889.87 234.695 1896L277.33 1932.79C305.445 1957.87 334.963 1981.33 365.739 2003.06C381.289 2013.79 397.314 2023.76 413.192 2034.05C429.446 2044.12 445.018 2055.26 459.806 2067.38C474.652 2079.94 487.795 2094.38 498.9 2110.34C510.005 2126.35 519.401 2143.48 526.934 2161.45C542.265 2197.22 550.843 2235.04 557.268 2272.45C560.443 2291.21 563.181 2309.94 565.7 2328.7C566.941 2338.05 568.218 2347.5 569.35 2356.95C570.481 2366.41 571.284 2375.86 572.124 2385.35C575.341 2423.23 575.841 2461.29 573.621 2499.24H571.796C567.963 2461.57 563.692 2424.15 557.852 2387C554.931 2368.42 551.719 2350.02 548.251 2331.44L538.104 2275.81C531.205 2238.94 524.306 2202.26 510.982 2167.91C504.35 2150.67 496.176 2134.07 486.562 2118.3C477.145 2102.41 465.859 2087.7 452.943 2074.5C439.708 2061.43 425.302 2049.6 409.907 2039.16C394.466 2028.39 378.551 2018.17 362.454 2007.95C330.624 1987.55 298.063 1967.8 267.766 1944.59C252.618 1933.05 237.944 1920.93 223.963 1908.08C216.918 1901.69 209.946 1895.2 203.084 1888.66C196.221 1882.13 189.541 1875.27 182.898 1868.48C156.334 1841.31 131.925 1812.12 109.893 1781.16L111.207 1779.96Z" fill="#899FCA"/>
<path d="M450.059 2195.43C447.687 2201.6 424.946 2190.35 389.903 2201.2C364.352 2209.12 362.526 2219.45 328.214 2236.46C303.502 2248.72 286.273 2257.26 263.751 2257.66C234.987 2258.18 227.759 2244.82 184.723 2233.57C162.713 2227.98 140.12 2225 117.412 2224.7C46.0133 2222.22 8.5618 2245.44 1.91835 2234.63C-5.38215 2222.84 30.4998 2181.34 74.3393 2152.83C166.545 2092.86 268.35 2107.2 283.243 2109.54C379.719 2124.58 454.513 2183.71 450.059 2195.43Z" fill="#C4CFE6"/>
<path d="M24.1123 2216.38C35.031 2206.06 47.5572 2197.59 61.1988 2191.3C64.6301 2189.73 68.0978 2188.31 71.5655 2186.78C75.0333 2185.24 78.6835 2184.26 82.2608 2183.12C85.838 2181.99 89.5613 2181.04 93.2115 2180.02C96.8618 2179 100.512 2178.49 104.162 2177.72C119.176 2175.02 134.472 2174.25 149.681 2175.42C153.484 2175.63 157.274 2176.05 161.033 2176.66L166.691 2177.47L169.502 2177.91L172.093 2178.31C178.883 2179.55 185.928 2180.39 192.973 2181.04C221.916 2183.51 251.015 2183.51 279.958 2181.04C309.16 2178.53 337.997 2173.74 367.564 2170.64C382.538 2168.87 397.65 2168.57 412.681 2169.76C420.669 2170.54 428.515 2172.4 436.006 2175.28C444.324 2178.37 451.608 2183.73 457.032 2190.75C466.548 2202.6 474.897 2215.34 481.963 2228.79C488.861 2242.63 493.776 2257.38 496.564 2272.59L498.353 2283.84C499.01 2287.49 499.229 2291.32 499.63 2295.08C500.506 2302.38 500.762 2310.01 501.127 2317.45C501.492 2324.9 501.346 2332.31 501.492 2339.72L500.944 2361.88C499.709 2391.31 496.968 2420.66 492.731 2449.81H490.906C488.971 2420.61 488.168 2391.15 486.562 2362.21C485.512 2333.48 482.463 2304.87 477.437 2276.57C474.776 2263.01 470.576 2249.79 464.916 2237.19C458.735 2224.5 451.468 2212.37 443.197 2200.94C437.174 2191.7 424.07 2187.03 410.674 2184.33C396.612 2181.94 382.376 2180.72 368.112 2180.68C338.887 2180.78 309.703 2182.86 280.761 2186.92L236.958 2192.94C222.198 2195.09 207.304 2196.19 192.389 2196.23C188.739 2196.23 184.833 2196.23 181 2195.75C179.102 2195.75 177.35 2195.5 175.306 2195.28L169.575 2194.48L158.879 2192.98C155.229 2192.58 151.944 2191.7 148.44 2191.59L137.927 2190.75C134.277 2190.75 130.919 2190.75 127.414 2190.75C125.662 2190.75 123.764 2190.75 122.158 2190.75L116.865 2191.05C113.349 2191.13 109.84 2191.4 106.352 2191.85C77.8008 2194.83 50.1871 2203.75 25.2804 2218.02L24.1123 2216.38Z" fill="#A4B5DD"/>
<path d="M502.148 1824.45C490.065 1825.51 474.442 1781.42 468.201 1745.21C460.9 1702.79 469.953 1691.69 468.201 1622.96C467.716 1595.68 465.436 1568.47 461.375 1541.49C453.527 1490.71 444.072 1477.39 436.48 1441.87C418.229 1356.31 438.816 1272.46 450.059 1272.1C455.68 1271.92 457.14 1292.36 470.464 1326.41C483.167 1358.97 493.971 1367.41 527.043 1421.32C550.441 1459.54 562.121 1478.67 565.516 1489.22C578.146 1528.35 572.123 1562.22 563.253 1609.2C553.069 1663.08 544.126 1663.73 527.043 1733.71C512.113 1794.71 511.784 1823.61 502.148 1824.45Z" fill="#C4CFE6"/>
<path d="M450.972 1312.61C466.778 1360.07 481.926 1407.85 499.63 1454.32C501.784 1460.12 504.083 1465.89 506.419 1471.58L508.172 1475.96L509.96 1480.74C511.055 1483.96 512.004 1487.2 512.771 1490.49C515.494 1503.35 516.719 1516.48 516.421 1529.62C516.182 1542.37 515.292 1555.1 513.756 1567.77C512.442 1580.36 510.471 1592.77 508.719 1605.14C505.069 1629.86 501.09 1654.42 498.717 1679.17C496.145 1703.9 495.778 1728.81 497.622 1753.6C498.604 1765.99 500.286 1778.31 502.66 1790.5C503.901 1796.56 504.959 1802.81 506.091 1809.01L507.77 1818.32L508.646 1822.95L509.23 1827.66C512.711 1852.63 514.843 1877.77 515.618 1902.97C516.129 1928.12 516.275 1953.34 515.07 1978.46C513.866 2003.57 512.114 2028.61 510.654 2053.47C509.194 2078.33 507.733 2103.29 507.551 2128.01C507.295 2140.38 507.551 2152.64 507.952 2164.91L509.23 2183.16C509.595 2189.26 510.8 2195.17 511.42 2201.19C518.721 2250.11 529.343 2299.17 537.483 2348.66C541.608 2373.45 545.185 2398.42 547.229 2423.57C548.324 2436.12 548.835 2448.72 549.091 2461.31C549.091 2467.59 549.091 2473.9 549.091 2480.18C549.091 2486.46 548.543 2492.74 548.288 2499.02H546.463C540.841 2398.78 508.536 2303.98 492.11 2204.11C488.512 2178.73 487.29 2153.07 488.46 2127.46C488.679 2114.79 489.628 2102.24 490.322 2089.61C491.015 2076.98 492.256 2064.53 493.425 2052.04L500.323 1977.51C502.623 1952.65 504.448 1927.83 505.47 1902.93L505.689 1884.32C505.689 1881.18 505.689 1878.07 505.689 1874.97L505.397 1865.66C505.142 1859.46 505.142 1853.22 504.667 1847.01L502.915 1828.47C502.514 1822.22 501.163 1816.16 500.214 1810C499.265 1803.83 498.243 1797.8 497.038 1791.56C495.834 1785.32 494.885 1779.15 493.863 1772.91C492.84 1766.67 492.11 1760.43 491.563 1754.15C486.16 1704.03 488.132 1653.07 493.461 1603.25C495.98 1578.31 499.265 1553.6 500.104 1529.33C500.619 1517.43 499.774 1505.52 497.586 1493.81C496.929 1491 496.308 1488.19 495.469 1485.45L494.154 1481.4L492.548 1476.98C490.358 1471.02 488.266 1465.06 486.27 1459.1C482.145 1447.16 478.568 1435.08 475.064 1423C471.56 1410.91 468.311 1398.8 465.245 1386.49C459.112 1362.15 453.6 1337.65 449.147 1312.94L450.972 1312.61Z" fill="#A4B5DD"/>
<path d="M714.519 2197.69C711.855 2181.23 757.008 2153.09 800.555 2150.24C805.228 2149.95 806.213 2150.24 866.26 2157.03C915.465 2162.69 921.014 2163.23 927.402 2163.82C987.74 2169.33 980.841 2163.82 999.823 2168.35C1037.57 2177.62 1037.16 2193.09 1090.39 2211.38C1110.79 2218.39 1121.81 2219.89 1122.07 2224.96C1122.62 2234.41 1085.57 2243.58 1040.6 2254.38C985.222 2267.74 957.553 2274.42 936.454 2272.63C896.302 2268.98 894.659 2253.32 834.576 2231.9C759.636 2204.92 717.038 2213.13 714.519 2197.69Z" fill="#C4CFE6"/>
<path d="M697.072 2440.14C691.586 2427.05 686.881 2413.64 682.982 2399.99C680.974 2393.2 679.076 2386.34 677.433 2379.4C675.791 2372.47 674.148 2365.57 672.834 2358.59C671.52 2351.62 670.206 2344.58 669.184 2337.5C668.162 2330.41 667.322 2323.33 666.629 2316.18C665.144 2301.82 665.009 2287.35 666.227 2272.96C667.393 2258.25 670.815 2243.81 676.375 2230.14C679.257 2223.2 683.184 2216.74 688.019 2210.98C690.473 2208.08 693.226 2205.45 696.232 2203.13C699.288 2200.9 702.581 2199.02 706.051 2197.51C709.494 2196.14 713.048 2195.06 716.674 2194.3C720.105 2193.49 723.536 2192.69 726.931 2191.81L747.628 2186.96C761.452 2183.62 775.439 2180.99 789.532 2179.08C804.071 2177.17 818.797 2177.17 833.335 2179.08C847.711 2181.25 861.85 2184.77 875.569 2189.59L885.717 2193.24C889.111 2194.44 892.214 2195.36 895.463 2196.45C898.711 2197.55 901.96 2198.42 905.245 2199.33C908.531 2200.25 911.779 2201.23 915.174 2201.96C928.497 2205.28 942.076 2207.95 955.692 2210.58C982.923 2215.69 1010.45 2219.63 1038.22 2222.51C1052.09 2223.72 1066 2225 1079.91 2225.32C1093.87 2225.95 1107.85 2225.53 1121.74 2224.08L1122.18 2225.84C1108.6 2230.38 1094.54 2233.35 1080.27 2234.67L1069.62 2235.73L1058.92 2236.35C1051.8 2236.75 1044.65 2236.79 1037.53 2236.86C1023.26 2236.86 1008.99 2236.24 994.786 2234.96C980.587 2233.68 966.387 2232 952.26 2229.78C938.098 2227.4 924.074 2224.27 910.246 2220.4C906.778 2219.48 903.347 2218.32 899.88 2217.22C896.412 2216.13 892.98 2215.1 889.549 2213.75C886.118 2212.4 882.577 2211.12 879.365 2209.85L869.838 2205.87C844.104 2195.76 818.077 2188.71 790.408 2189.04C776.484 2189.18 762.598 2190.52 748.905 2193.06C741.97 2194.08 735.144 2195.76 728.281 2197.22C724.887 2197.98 721.455 2198.86 718.061 2199.7C714.782 2200.42 711.589 2201.49 708.533 2202.87C702.686 2205.83 697.667 2210.19 693.932 2215.58C690.295 2221.09 687.571 2227.16 685.865 2233.54C682.69 2246.68 681.194 2260.17 681.412 2273.69C681.412 2287.34 681.996 2301.07 682.763 2314.86C683.201 2321.76 683.821 2328.66 684.551 2335.56C685.281 2342.46 685.938 2349.4 686.814 2356.29C690.173 2384 694.663 2411.67 698.86 2439.63L697.072 2440.14Z" fill="#A4B5DD"/>
<path d="M662.868 2127.79C654.728 2123.52 671.957 2067.49 699.078 2016.86C717.147 1983.17 734.96 1949.88 771.536 1919.51C816.726 1881.99 865.165 1869.98 902.945 1860.67C963.648 1845.67 971.715 1857.46 1013.88 1840.3C1075.13 1815.33 1098.2 1774.01 1108.78 1781.42C1119.37 1788.83 1107.07 1842.16 1072.57 1874.25C1052.39 1893.01 1025.78 1903.78 1009.2 1910.46C977.008 1923.49 963.867 1921.7 948.062 1937.65C938.243 1947.54 940.433 1951.19 923.167 1978.39C909.114 2000.55 901.74 2012.19 891.483 2021.39C873.487 2037.56 860.31 2034.05 807.71 2046.28C763.907 2056.5 742.005 2061.61 719.41 2075.74C680.9 2099.91 669.073 2131.04 662.868 2127.79Z" fill="#DDE6F4"/>
<path d="M1082.58 1824.42C1081.99 1830.26 1079.76 1835.81 1076.15 1840.44C1074.36 1842.63 1072.76 1845.08 1070.78 1847.12C1068.81 1849.17 1066.95 1851.21 1064.83 1853.4C1056.46 1860.95 1047.38 1867.67 1037.71 1873.48C1028.17 1879.35 1018.34 1884.73 1008.26 1889.61C1003.18 1891.95 998.108 1894.28 992.998 1896.51C987.888 1898.74 982.777 1900.89 977.594 1902.9L962.044 1908.96C956.824 1910.89 951.531 1912.61 946.275 1914.36C935.762 1918.01 925.249 1921.66 914.554 1924.33C893.31 1930.79 871.591 1935.28 849.981 1939.84H850.565C844.214 1941.74 837.497 1944.26 831.073 1946.85C824.649 1949.44 818.115 1952.36 811.8 1955.43C805.485 1958.49 799.279 1961.85 793.11 1965.35C786.942 1968.86 781.065 1972.65 775.224 1976.67C751.845 1992.59 731.218 2012.22 714.156 2034.78C705.824 2046.08 698.379 2058 691.889 2070.44C685.605 2082.82 680.344 2095.69 676.156 2108.92C675.134 2112.24 673.966 2115.49 673.127 2118.85L670.535 2128.92C668.965 2135.75 667.615 2142.65 666.118 2149.51C665.461 2152.94 664.585 2156.34 664.001 2159.8L662.286 2170.24C661.19 2177.21 659.876 2184.11 658.927 2191.09C657.248 2205.14 655.094 2219.05 653.89 2233.17L651.7 2254.27L649.875 2275.44L648.962 2285.99C648.707 2289.64 648.488 2293.07 648.159 2296.61L646.443 2317.79L643.523 2360.09C640.055 2416.78 637.61 2473.65 635.055 2530.7H633.229C627.451 2473.78 625.099 2416.57 626.185 2359.36C626.694 2301.95 631.76 2244.67 641.333 2188.06C642.538 2180.76 644.107 2173.89 645.494 2166.81L647.648 2156.23C648.342 2152.58 649.364 2149.22 650.24 2145.71C652.065 2138.67 653.89 2131.7 655.715 2124.69L659.146 2114.25C660.278 2110.6 661.774 2107.39 663.052 2103.95C674.079 2076.97 689.415 2051.96 708.461 2029.89C727.193 2007.99 748.396 1988.33 771.647 1971.3C777.378 1966.92 783.291 1962.8 789.241 1958.78C795.191 1954.77 801.251 1950.83 807.492 1947.1C813.734 1943.38 819.976 1939.8 826.401 1936.41C832.825 1933.01 839.286 1929.91 846.368 1926.99H846.952C857.464 1923.89 867.941 1920.64 878.526 1917.75C883.783 1916.33 889.039 1914.8 894.259 1913.19L909.991 1908.59L925.76 1904.07L941.384 1899.21C946.567 1897.57 951.823 1896.07 956.97 1894.28L972.447 1889.03C982.85 1885.74 992.779 1881.36 1003.04 1877.71C1013 1873.48 1023.04 1869.32 1032.68 1864.42C1035.05 1863.18 1037.57 1862.13 1039.98 1860.77L1046.99 1856.76C1051.8 1854.28 1056.04 1851.06 1060.6 1848.14L1066.88 1843.14C1069.03 1841.54 1070.75 1839.49 1072.72 1837.74C1076.49 1834.13 1079.29 1829.62 1080.86 1824.64L1082.58 1824.42Z" fill="#A4B5DD"/>
<path d="M694.992 1759.19C682.745 1769.09 672.288 1781.01 664.074 1794.45C661.884 1797.66 660.059 1801.13 658.124 1804.52C656.19 1807.92 654.474 1811.38 652.722 1814.85C650.97 1818.32 649.473 1821.93 647.976 1825.51L645.677 1830.88L643.669 1836.35C638.35 1851.01 634.224 1866.07 631.331 1881.4C628.594 1896.54 626.111 1912.86 622.644 1928.56C619.176 1944.25 615.015 1959.99 610.488 1975.5C605.962 1991.01 601.326 2006.38 597.165 2021.86C593.069 2037.27 589.996 2052.94 587.966 2068.76C587.455 2072.71 586.981 2076.68 586.616 2080.63C586.186 2084.58 585.954 2088.55 585.922 2092.53C585.922 2096.47 585.594 2100.34 585.922 2104.32L586.433 2116.22C587.236 2132.13 588.879 2148.05 590.303 2163.96L594.683 2211.74C597.713 2243.57 601.509 2275.4 604.429 2307.27C607.349 2339.14 610.196 2371.08 612.825 2403.02L616.84 2450.94C617.679 2458.87 618.117 2466.93 618.994 2474.85L620.162 2486.83L621.658 2498.73L619.906 2499.2L616.256 2487.63L613.153 2475.91C611.109 2468.06 609.503 2460.18 607.678 2452.3C604.319 2436.53 601.314 2420.71 598.662 2404.84C595.887 2388.96 593.442 2373.05 591.361 2357.13C589.28 2341.22 587.054 2325.23 585.265 2309.28C581.615 2277.3 579.425 2245.18 577.709 2213.02C575.634 2180.79 575.293 2148.48 576.687 2116.22L577.344 2104.06C577.6 2100.05 578.184 2095.92 578.549 2091.83C578.804 2089.83 578.95 2087.78 579.242 2085.77L580.228 2079.79C580.812 2075.77 581.469 2071.79 582.199 2067.81C584.9 2051.9 588.331 2036.13 591.799 2020.36L596.764 1996.78C598.297 1988.93 599.757 1981.05 601.034 1973.16C603.626 1957.36 605.78 1941.52 608.043 1925.71C610.306 1909.9 612.277 1894.32 615.891 1878C616.584 1873.95 617.752 1869.97 618.811 1865.99C619.87 1862.01 620.819 1858 622.096 1854.06L626.221 1842.37C627.535 1838.47 629.397 1834.71 630.93 1830.91L633.412 1825.22L636.259 1819.71C638.194 1816.06 639.909 1812.41 642.319 1808.76C646.513 1801.61 651.286 1794.82 656.591 1788.46C666.759 1775.39 679.716 1764.75 694.517 1757.32L694.992 1759.19Z" fill="#899FCA"/>
<path d="M453.71 2066.68C472.436 2058.91 464.661 1998.31 460.499 1964.81C454.331 1916.48 445.241 1909.1 433.305 1847.09C428.45 1821.79 425.567 1796.27 419.726 1745.21C411.331 1671.47 411.915 1658.81 408.41 1632.05C393.809 1519.37 339.932 1412.74 320.147 1417.01C312.847 1418.62 310.657 1436.18 306.532 1471.33C301.349 1516.04 316.643 1530.57 308.795 1564.15C304.451 1582.92 300.619 1577.37 286.164 1611.61C269.628 1650.92 257.181 1680.56 265.795 1711.22C271.052 1729.84 278.754 1729.95 286.164 1756.49C291.566 1775.76 290.033 1784.74 292.953 1803.94C295.253 1818.98 299.049 1832.41 313.321 1867.31C336.172 1923.08 347.561 1950.97 363.147 1975.98C382.275 2007.04 431.407 2075.85 453.71 2066.68Z" fill="#DDE6F4"/>
<path d="M320.841 1416.57C326.627 1427.13 331.594 1438.11 335.698 1449.43C339.892 1460.74 343.439 1472.28 346.32 1483.99C349.316 1495.71 351.692 1507.58 353.438 1519.55C354.387 1525.53 354.971 1531.56 355.738 1537.54C356.504 1543.53 356.65 1549.63 357.125 1555.79C357.599 1561.96 357.453 1567.91 357.636 1574.05C357.818 1580.18 357.636 1586.16 357.344 1592.3L355.774 1627.96C355.373 1639.79 355.008 1651.58 354.825 1663.33C354.643 1675.08 354.825 1686.84 355.409 1698.52C356.496 1722.11 358.81 1745.62 362.345 1768.97C365.703 1792.48 369.937 1815.95 374.536 1839.35C377.019 1850.95 379.063 1862.78 382.311 1874.1C383.881 1879.83 385.232 1885.56 386.984 1891.22C388.736 1896.87 390.926 1902.39 392.934 1907.93C393.992 1910.71 394.868 1913.52 396.036 1916.26L399.687 1924.43L406.987 1940.68C412.28 1951.34 417.317 1962.03 422.756 1972.65L439 2004.56C441.664 2009.92 444.475 2015.21 447.03 2020.62L454.623 2036.93C459.952 2047.88 464.186 2058.84 468.859 2070.11L472.29 2078.47C473.385 2081.25 474.334 2084.13 475.356 2086.94L481.379 2103.99C485.65 2115.27 488.862 2126.88 492.33 2138.45L497.44 2155.79C498.937 2161.63 500.251 2167.5 501.675 2173.34L505.799 2190.94C507.113 2196.81 508.61 2202.66 509.45 2208.61L515.399 2243.98L516.823 2252.88C517.298 2255.84 517.517 2258.87 517.882 2261.83L519.889 2279.75C521.167 2291.68 522.7 2303.62 523.54 2315.56C524.744 2339.54 526.642 2363.45 526.898 2387.39V2423.31C526.898 2435.29 527.19 2447.22 526.387 2459.19C525.584 2471.17 525.182 2483.07 524.525 2495C523.868 2506.94 523.211 2518.84 522.335 2530.78H520.51C519.743 2518.88 519.196 2506.94 518.612 2495.04C518.028 2483.14 517.444 2471.24 517.042 2459.34C515.911 2435.58 513.793 2411.89 512.479 2388.16C512.005 2376.3 510.326 2364.54 509.267 2352.72L505.909 2317.35C505.398 2311.43 504.266 2305.59 503.573 2299.75L501.236 2282.16L498.9 2264.56C498.499 2261.64 498.207 2258.69 497.696 2255.77L496.09 2247.08L490.213 2212.11C489.337 2206.23 487.877 2200.54 486.563 2194.77L482.912 2177.5C481.671 2171.74 480.503 2165.93 479.262 2160.2L474.663 2143.16C471.596 2131.77 468.786 2120.31 464.917 2109.17C450.936 2064.13 432.466 2020.58 413.813 1976.67C408.995 1965.72 404.541 1954.77 399.906 1943.56L393.554 1926.73L390.305 1918.34C389.247 1915.56 388.407 1912.64 387.458 1909.8C385.633 1904.06 383.808 1898.37 381.873 1892.68C379.939 1886.98 378.844 1881.07 377.311 1875.26C374.171 1863.62 371.726 1851.98 369.098 1840.33L352.781 1770.58C347.121 1747.13 343.06 1723.32 340.626 1699.32C338.595 1675.26 338.388 1651.07 340.005 1626.97L342.232 1591.24C342.487 1585.4 343.035 1579.56 343.181 1573.72C343.327 1567.88 343.4 1562 343.181 1556.12L342.633 1538.57C342.232 1532.73 342.013 1526.85 341.465 1521.01C340.918 1515.17 340.407 1509.29 339.531 1503.49C338.654 1497.68 338.034 1491.81 337.012 1486C335.077 1474.36 332.705 1462.79 329.711 1451.32C326.898 1439.82 323.425 1428.48 319.308 1417.38L320.841 1416.57Z" fill="#A4B5DD"/>
<path d="M543.908 1933.12C531.095 1930.02 531.424 1878.08 537.118 1842.56C542.428 1810.79 553.144 1780.15 568.802 1752C583.403 1726.05 590.704 1724 602.75 1697.68C616.402 1668.23 612.277 1660.71 623.155 1634.28C635.018 1605.44 642.866 1607.38 675.207 1559.59C699.408 1523.82 712.294 1504.84 720.47 1475.64C730.946 1438.7 726.055 1413 731.786 1412.27C738.174 1411.43 752.483 1441.91 752.191 1475.64C752.191 1494.18 747.555 1500.86 729.523 1554.89C716.856 1592.85 710.505 1612.12 709.154 1625.04C705.833 1657.09 713.827 1664.47 711.418 1699.76C710.542 1712.8 708.789 1738.82 697.839 1763.13C677.069 1809.6 643.523 1804.67 598.223 1856.14C560.662 1899.03 554.858 1935.75 543.908 1933.12Z" fill="#DDE6F4"/>
<path d="M737.225 1455.2C738.774 1466.5 738.242 1477.99 735.655 1489.11C733.413 1500.15 730.499 1511.05 726.931 1521.74C723.536 1532.47 719.631 1542.91 715.214 1553.31L708.607 1568.68C706.344 1573.79 703.825 1578.79 701.306 1583.87C696.597 1594.05 691.341 1603.87 686.231 1613.84C681.12 1623.8 675.28 1633.36 669.914 1643.04C664.548 1652.71 658.489 1662.2 652.685 1671.73L635.529 1699.87C612.68 1737.63 593.957 1777.73 579.68 1819.49C572.7 1840.5 566.827 1861.86 562.086 1883.48L558.436 1899.69L555.588 1916.04C553.581 1926.99 552.267 1937.94 550.551 1948.89C547.777 1970.79 545.696 1992.69 544.054 2014.81C543.324 2025.77 542.52 2036.72 542.082 2047.67C541.827 2053.29 541.608 2058.36 541.863 2063.55C542.094 2068.76 542.667 2073.96 543.579 2079.1C550.88 2123.08 556.975 2167.18 561.575 2211.45C566.174 2255.73 569.204 2300.26 570.043 2344.91C570.883 2389.55 569.715 2434.41 562.232 2478.43H560.443C561.027 2456.2 561.1 2434.12 559.896 2412C559.713 2406.49 559.494 2401.05 559.056 2395.46L558.107 2378.89C557.414 2367.94 556.391 2356.99 555.661 2345.82C552.011 2301.72 547.375 2257.7 542.229 2213.75C537.082 2169.8 532.227 2125.75 526.532 2081.83C525.701 2075.99 525.237 2070.1 525.145 2064.2C525.094 2058.4 525.362 2052.6 525.948 2046.83C526.861 2035.66 527.993 2024.52 529.599 2013.43C532.409 1991.2 536.461 1969.22 540.805 1947.32C545.149 1925.42 550.405 1903.74 556.026 1882.16C561.648 1860.59 567.598 1839.17 573.986 1817.81C586.981 1775.25 601.326 1732.61 622.242 1692.64C627.717 1682.9 633.193 1672.71 638.814 1663.44L655.97 1635.12C667.177 1616.1 678.273 1597.04 688.822 1577.62C699.372 1558.21 709.045 1538.53 717.805 1518.38C722.137 1508.28 726.006 1498.02 729.413 1487.61L731.749 1479.73C732.443 1477.1 733.027 1474.43 733.684 1471.77C734.914 1466.5 735.491 1461.11 735.4 1455.71L737.225 1455.2Z" fill="#A4B5DD"/>
<path d="M786.065 1727.87C853.667 1681.84 859.07 1680.42 874.364 1664.47C909.991 1627.34 902.69 1612.89 935.543 1578.47C978.214 1533.64 1040.16 1506.23 1053.26 1519.59C1060.09 1526.56 1049.03 1539.92 1026.11 1607.89C1008.66 1659.61 1011.5 1662.64 1001.21 1678.08C986.609 1699.98 965.73 1713.2 924.227 1739.19C886.118 1763.06 875.24 1764.12 856.332 1784.45C845.053 1796.53 844.505 1800.88 824.611 1825.22C812.023 1841.17 798.415 1856.29 783.875 1870.49C758.798 1894.18 736.933 1928.89 692.217 1925.24C683.201 1924.33 707.219 1781.53 786.065 1727.87Z" fill="#DDE6F4"/>
<path d="M1017.75 1558.53C1005.36 1580.96 990.561 1601.96 973.615 1621.17C965.073 1630.74 956.349 1640.19 946.895 1648.91C942.296 1653.44 937.368 1657.56 932.586 1661.87C927.804 1666.18 922.584 1670.01 917.583 1674.1L902.033 1685.49L894.733 1691.04C892.251 1692.83 889.805 1694.69 887.432 1696.73L880.351 1702.61C878.015 1704.58 875.898 1706.81 873.634 1708.85C869.108 1712.98 865.093 1717.61 860.895 1722.03C852.962 1731.35 845.442 1741.08 838.337 1751.23C831.292 1761.56 824.028 1772.07 816.435 1782.44C808.675 1792.92 800.002 1802.69 790.518 1811.64C781.01 1820.55 770.765 1828.63 759.893 1835.81C749.82 1842.82 740.83 1851.26 733.209 1860.88C725.428 1870.69 718.387 1881.06 712.147 1891.91C705.882 1902.84 700.18 1914.09 695.064 1925.6C690.1 1937.21 685.172 1948.82 681.157 1960.79C672.867 1984.63 666.017 2008.95 660.642 2033.61C655.167 2058.22 651.042 2083.11 647.502 2108.01C643.961 2132.9 641.296 2157.94 639.617 2183.02C637.938 2208.1 637.171 2233.17 637.573 2258.25C637.865 2270.81 638.157 2283.33 638.814 2295.85C639.471 2308.37 640.493 2320.78 641.369 2333.52C644.764 2384.15 647.94 2434.78 650.312 2485.48C652.685 2536.18 654.473 2587.1 655.35 2637.84H653.524C646.735 2587.47 640.968 2537.06 635.784 2486.57C630.601 2436.09 626.038 2385.75 621.621 2335.23C619.614 2310.01 617.971 2284.13 618.19 2258.58C618.409 2233.03 619.65 2207.47 622.096 2181.92C624.542 2156.37 627.936 2131.04 632.718 2105.92C637.5 2080.81 643.669 2055.95 650.641 2031.42C657.613 2006.89 665.972 1982.77 675.024 1958.93C684.017 1935.05 694.577 1911.8 706.636 1889.32C712.702 1877.94 719.493 1866.97 726.967 1856.47C734.494 1845.68 743.501 1836.01 753.724 1827.74C773.342 1812.58 790.367 1794.33 804.134 1773.72C811.252 1763.53 817.786 1752.73 825.086 1742.18C832.346 1731.35 840.335 1721.04 848.995 1711.3C853.595 1706.59 857.975 1701.7 862.939 1697.39C865.385 1695.2 867.684 1692.86 870.24 1690.82L877.905 1684.61C880.432 1682.54 883.064 1680.61 885.79 1678.81L893.857 1673.26L909.334 1662.71C950.133 1633.42 986.171 1598.01 1016.18 1557.73L1017.75 1558.53Z" fill="#A4B5DD"/>
<path d="M742.517 2384.73L738.867 2416.38L707.511 2681.39C706.939 2686.23 704.607 2690.7 700.96 2693.93C697.312 2697.17 692.603 2698.95 687.727 2698.95H498.68C493.808 2698.94 489.108 2697.15 485.464 2693.91C481.82 2690.68 479.484 2686.23 478.896 2681.39L468.712 2595.21L443.781 2384.7C443.45 2381.9 443.716 2379.07 444.56 2376.39C445.404 2373.71 446.807 2371.24 448.676 2369.13C450.546 2367.03 452.839 2365.35 455.406 2364.2C457.972 2363.06 460.753 2362.46 463.565 2362.47H722.733C725.548 2362.46 728.333 2363.06 730.902 2364.21C733.471 2365.36 735.767 2367.04 737.637 2369.15C739.507 2371.25 740.909 2373.73 741.75 2376.42C742.591 2379.1 742.853 2381.94 742.517 2384.73Z" fill="#B2C2E3"/>
<path opacity="0.47" d="M722.842 2537.68C722.842 2537.68 707.876 2537.68 680.098 2536.22C633.864 2533.74 589.992 2515.01 556.224 2483.33C522.457 2451.66 500.964 2409.07 495.541 2363.09V2362.5H463.565C460.753 2362.5 457.972 2363.09 455.406 2364.24C452.839 2365.39 450.546 2367.07 448.676 2369.17C446.807 2371.27 445.404 2373.74 444.56 2376.43C443.716 2379.11 443.45 2381.94 443.781 2384.73L468.712 2595.24L478.896 2681.42C479.484 2686.26 481.82 2690.72 485.464 2693.95C489.108 2697.18 493.808 2698.97 498.68 2698.98H687.617C692.494 2698.99 697.203 2697.2 700.85 2693.97C704.498 2690.73 706.829 2686.27 707.402 2681.42L724.412 2537.6C723.891 2537.67 723.366 2537.69 722.842 2537.68Z" fill="url(#paint0_linear_60_703)"/>
<path opacity="0.49" d="M628.374 2362.5L506.93 2698.98H498.681C493.809 2698.97 489.108 2697.18 485.464 2693.95C481.82 2690.72 479.484 2686.26 478.896 2681.43L468.712 2595.24L552.668 2362.5H628.374ZM742.517 2384.73L738.867 2416.38L636.915 2698.95H531.715L653.159 2362.47H722.733C725.548 2362.46 728.333 2363.06 730.902 2364.21C733.471 2365.36 735.767 2367.04 737.637 2369.15C739.507 2371.25 740.909 2373.73 741.75 2376.42C742.592 2379.1 742.853 2381.94 742.517 2384.73Z" fill="white"/>
<path d="M2714.56 319.162H1659.64C1609.24 319.162 1568.38 360.019 1568.38 410.418V2607.76C1568.38 2658.16 1609.24 2699.01 1659.64 2699.01H2714.56C2764.96 2699.01 2805.82 2658.16 2805.82 2607.76V410.418C2805.82 360.019 2764.96 319.162 2714.56 319.162Z" fill="#8EB8E2"/>
<path d="M2603.89 319.162H1548.97C1498.57 319.162 1457.71 360.019 1457.71 410.418V2607.76C1457.71 2658.16 1498.57 2699.01 1548.97 2699.01H2603.89C2654.29 2699.01 2695.14 2658.16 2695.14 2607.76V410.418C2695.14 360.019 2654.29 319.162 2603.89 319.162Z" fill="#3E5FAB"/>
<path d="M2608.45 540.48H1544.04V2405.03H2608.45V540.48Z" fill="#8EB8E2"/>
<path opacity="0.47" d="M2608.41 1164.92C2474.78 1326.66 2299.79 1484.03 2043.36 1549.69C1836.72 1602.62 1681.98 1569.19 1544 1537.17V2405.02H2608.41V1164.92Z" fill="url(#paint1_linear_60_703)"/>
<path d="M1894.86 319.162H2257.55V364.644C2257.55 379.689 2251.58 394.117 2240.94 404.755C2230.3 415.393 2215.87 421.369 2200.83 421.369H1951.62C1936.58 421.369 1922.15 415.393 1911.51 404.755C1900.88 394.117 1894.9 379.689 1894.9 364.644V319.162H1894.86Z" fill="#324E87"/>
<path d="M2389.69 451.261C2406.22 451.261 2419.62 437.86 2419.62 421.329C2419.62 404.798 2406.22 391.396 2389.69 391.396C2373.16 391.396 2359.76 404.798 2359.76 421.329C2359.76 437.86 2373.16 451.261 2389.69 451.261Z" fill="#324E87"/>
<path d="M2076.21 2616.89C2120.14 2616.89 2155.75 2581.28 2155.75 2537.35C2155.75 2493.42 2120.14 2457.81 2076.21 2457.81C2032.28 2457.81 1996.67 2493.42 1996.67 2537.35C1996.67 2581.28 2032.28 2616.89 2076.21 2616.89Z" stroke="#8EB8E2" stroke-width="5" stroke-miterlimit="10"/>
<path d="M2550 708.331C2550 767.064 2507.46 801 2454.99 801C2402.52 801 2360 767.064 2360 708.331C2360 649.598 2402.52 602 2454.99 602C2507.46 602 2550 649.57 2550 708.331Z" fill="#3E5FAB"/>
<path d="M2470.95 702.237C2473.93 699.539 2476.3 696.248 2477.91 692.578C2479.52 688.908 2480.34 684.941 2480.31 680.936C2480.31 665.571 2468.47 653 2453.85 653C2439.23 653 2427.38 665.501 2427.38 680.936C2427.35 685.099 2428.24 689.217 2429.98 693.001C2431.72 696.785 2434.28 700.142 2437.46 702.838C2428.77 706.318 2421.31 712.309 2416.06 720.041C2410.81 727.772 2408 736.89 2408 746.222V756H2502V746.222C2502 736.602 2499.01 727.217 2493.46 719.346C2487.9 711.475 2480.04 705.5 2470.95 702.237Z" fill="#A8B9DF"/>
<path d="M2022.33 1805.18H1661.47V2040.76H2022.33V1805.18Z" fill="#C4CFE6"/>
<path d="M2021.86 1190H1661V1425.59H2021.86V1190Z" fill="#C4CFE6"/>
<path d="M2524.24 1805.18H2163.38V2040.76H2524.24V1805.18Z" fill="#C4CFE6"/>
<path d="M2523.77 1190H2162.91V1425.59H2523.77V1190Z" fill="#C4CFE6"/>
<path d="M2022.33 1491.18H1661.47V1726.76H2022.33V1491.18Z" fill="#C4CFE6"/>
<path d="M2021.86 876H1661V1111.59H2021.86V876Z" fill="#C4CFE6"/>
<path d="M2524.24 1491.18H2163.38V1726.76H2524.24V1491.18Z" fill="#C4CFE6"/>
<path d="M2523.77 876H2162.91V1111.59H2523.77V876Z" fill="#C4CFE6"/>
<path opacity="0.47" d="M1658.99 2139.98H2524.28" stroke="url(#paint2_linear_60_703)" stroke-width="7" stroke-miterlimit="10"/>
<path opacity="0.47" d="M1658.99 2239.19H2524.28" stroke="url(#paint3_linear_60_703)" stroke-width="7" stroke-miterlimit="10"/>
<path opacity="0.25" d="M2290.7 540.438L1704.43 2405.02H1544.04V2022.55L2010.07 540.438H2290.7Z" fill="white"/>
<path opacity="0.25" d="M1798.39 2405.03L2384.65 540.48H2608.45V1023.08L2173.93 2405.03H1798.39Z" fill="white"/>
<path d="M2752.82 677.18V930.617" stroke="#324E87" stroke-width="5" stroke-miterlimit="10"/>
<path opacity="0.47" d="M1119.04 293.688H542.995V604.068H1119.04V293.688Z" fill="url(#paint4_linear_60_703)"/>
<path d="M718.315 458.096C718.315 537.525 775.916 583.409 846.987 583.409C918.057 583.409 975.694 537.525 975.694 458.096C975.694 378.666 918.057 314.312 846.987 314.312C775.916 314.312 718.315 378.703 718.315 458.096Z" fill="#3E5FAB"/>
<path d="M825.596 449.625C821.598 445.982 818.411 441.538 816.241 436.582C814.072 431.627 812.968 426.271 813.003 420.861C813.003 400.018 828.918 383.154 848.593 383.154C868.268 383.154 884.183 400.018 884.183 420.861C884.226 426.48 883.036 432.04 880.696 437.149C878.356 442.258 874.924 446.791 870.641 450.428C882.328 455.143 892.339 463.244 899.389 473.689C906.44 484.135 910.208 496.449 910.209 509.051V522.338H783.765V509.051C783.768 496.044 787.788 483.354 795.275 472.718C802.763 462.081 813.352 454.016 825.596 449.625Z" fill="white"/>
<path d="M1031.54 527.012H919.81" stroke="#E7EBF6" stroke-width="8" stroke-miterlimit="10"/>
<path d="M975.695 582.858V471.16" stroke="#E7EBF6" stroke-width="8" stroke-miterlimit="10"/>
<path opacity="0.42" d="M986.026 293.688L895.938 604.032H736.13L826.218 293.688H986.026Z" fill="white"/>
<path opacity="0.42" d="M1083.89 293.688L993.801 604.032H921.161L1011.25 293.688H1083.89Z" fill="white"/>
<path opacity="0.51" d="M4053 540.479H2914.01V966.389H4053V540.479Z" fill="url(#paint5_linear_60_703)"/>
<path d="M3253.45 771.647C3253.45 863.707 3186.65 916.927 3104.26 916.927C3021.88 916.927 2955.08 863.707 2955.08 771.647C2955.08 679.588 3021.77 605.014 3104.15 605.014C3186.54 605.014 3253.45 679.625 3253.45 771.647Z" fill="#3E5FAB"/>
<path opacity="0.47" d="M3368.83 702.773H3938.16" stroke="url(#paint6_linear_60_703)" stroke-width="7" stroke-miterlimit="10"/>
<path opacity="0.47" d="M3368.83 828.299H3938.16" stroke="url(#paint7_linear_60_703)" stroke-width="7" stroke-miterlimit="10"/>
<path opacity="0.42" d="M3549.96 540.443L3399.02 966.391H3241.26L3392.2 540.443H3549.96Z" fill="white"/>
<path opacity="0.42" d="M3890.13 540.443L3739.23 966.391H3471.55L3622.45 540.443H3890.13Z" fill="white"/>
<path d="M1479.17 2620.02C1497.26 2620.02 1511.92 2605.36 1511.92 2587.28C1511.92 2569.2 1497.26 2554.54 1479.17 2554.54C1461.09 2554.54 1446.43 2569.2 1446.43 2587.28C1446.43 2605.36 1461.09 2620.02 1479.17 2620.02Z" fill="#30302F"/>
<path d="M1484.9 2657.66H1505.53V2646.71H1484.9C1481.25 2646.71 1479.17 2644.88 1479.14 2644.26L1469.61 2503.94C1469.67 2503.7 1469.79 2503.47 1469.98 2503.29C1471.48 2502.01 1473.41 2501.36 1475.38 2501.46H1509.91V2490.51H1475.38C1472.9 2490.44 1470.44 2490.87 1468.14 2491.78C1465.83 2492.69 1463.74 2494.06 1461.98 2495.8C1460.85 2496.98 1459.98 2498.37 1459.41 2499.9C1458.83 2501.42 1458.58 2503.05 1458.66 2504.67L1468.19 2644.99C1468.7 2652.22 1475.78 2657.66 1484.9 2657.66Z" fill="#30302F"/>
<path d="M1492.06 2583.52L1603.06 2580.75L1521.41 2133.19L1509.94 1637.34L1328.45 1522.79L1481.55 2128.66L1492.06 2583.52Z" fill="#EE465E"/>
<path d="M1522.79 1675.56H1510.09C1488.02 1675.56 1466.85 1666.79 1451.24 1651.18C1435.63 1635.57 1426.87 1614.4 1426.87 1592.33V1579.63C1426.87 1576.72 1428.02 1573.94 1430.07 1571.88C1432.13 1569.83 1434.91 1568.68 1437.82 1568.68H1522.79C1525.7 1568.68 1528.48 1569.83 1530.54 1571.88C1532.59 1573.94 1533.74 1576.72 1533.74 1579.63V1664.61C1533.74 1667.51 1532.59 1670.3 1530.54 1672.35C1528.48 1674.4 1525.7 1675.56 1522.79 1675.56Z" fill="#4E4F50"/>
<path d="M1517.5 1613.95H1521.81C1523.38 1613.95 1524.93 1613.65 1526.38 1613.05C1527.83 1612.45 1529.15 1611.57 1530.26 1610.46C1531.37 1609.35 1532.25 1608.03 1532.84 1606.58C1533.44 1605.13 1533.75 1603.58 1533.74 1602.01V1630.74C1533.75 1632.31 1533.44 1633.86 1532.84 1635.31C1532.25 1636.76 1531.37 1638.08 1530.26 1639.19C1529.15 1640.3 1527.83 1641.18 1526.38 1641.77C1524.93 1642.37 1523.38 1642.68 1521.81 1642.67H1517.5C1505.6 1642.67 1493.81 1640.33 1482.82 1635.77C1471.82 1631.22 1461.83 1624.54 1453.41 1616.13C1444.99 1607.71 1438.32 1597.72 1433.76 1586.72C1429.21 1575.73 1426.86 1563.94 1426.86 1552.04V1547.73C1426.88 1545.52 1427.51 1543.36 1428.69 1541.49C1432.88 1561.95 1444 1580.34 1460.19 1593.54C1476.37 1606.74 1496.61 1613.95 1517.5 1613.95Z" fill="#79797A"/>
<path d="M1492.09 2580.75V2698.98H1753.2V2658.83C1753.19 2651.55 1750.34 2644.57 1745.25 2639.37C1740.16 2634.18 1733.24 2631.18 1725.97 2631.01C1687.89 2629.99 1621.35 2622.11 1603.1 2580.6H1492.13L1492.09 2580.75Z" fill="#C23E56"/>
<path d="M1455.3 1764.95C1457.64 1824.23 1462.13 1883.29 1467.35 1942.24C1469.79 1971.74 1472.97 2001.16 1475.81 2030.62L1485.49 2118.84C1492.23 2177.64 1499.86 2236.32 1508.37 2294.89C1516.81 2353.3 1526.01 2411.99 1537.58 2470.11C1535.28 2410.79 1530.79 2351.73 1525.53 2292.78C1520.27 2233.83 1514.29 2174.95 1507.28 2116.18L1496.33 2028.1C1492.31 1998.9 1488.66 1969.4 1484.25 1940.13C1475.78 1881.69 1466.65 1823.17 1455.3 1764.95Z" fill="#4E4F50"/>
<path d="M1492.75 2698.98C1493.31 2690.57 1497.12 2682.72 1503.37 2677.08C1509.34 2671.65 1517.22 2668.8 1525.28 2669.16C1533.08 2669.45 1540.44 2672.82 1545.75 2678.54C1550.94 2684.08 1553.75 2691.43 1553.57 2699.02H1562.07C1562.31 2691.6 1565.41 2684.56 1570.72 2679.38C1575.97 2674.35 1582.97 2671.57 1590.24 2671.64C1597.51 2671.72 1604.46 2674.64 1609.6 2679.78C1614.66 2684.9 1617.48 2691.82 1617.44 2699.02H1628.4C1628.44 2693.63 1630.07 2688.37 1633.07 2683.9C1636.07 2679.42 1640.32 2675.93 1645.28 2673.84C1650.25 2671.76 1655.72 2671.17 1661.02 2672.16C1666.31 2673.15 1671.2 2675.67 1675.08 2679.41C1680.4 2684.58 1683.5 2691.61 1683.73 2699.02H1692.27C1692.12 2691.43 1694.92 2684.09 1700.09 2678.54C1705.41 2672.83 1712.77 2669.46 1720.56 2669.16C1728.62 2668.84 1736.48 2671.68 1742.47 2677.08C1748.68 2682.75 1752.48 2690.59 1753.09 2698.98C1753.36 2694.6 1752.74 2690.21 1751.29 2686.08C1749.84 2681.94 1747.57 2678.13 1744.62 2674.89C1741.52 2671.57 1737.8 2668.89 1733.66 2667.02C1729.53 2665.14 1725.07 2664.09 1720.53 2663.94C1715.84 2663.79 1711.17 2664.57 1706.79 2666.23C1702.4 2667.89 1698.39 2670.4 1694.98 2673.61C1691.5 2676.91 1688.71 2680.87 1686.78 2685.26C1684.84 2689.64 1683.79 2694.37 1683.7 2699.16H1692.24C1692.35 2694.29 1691.49 2689.45 1689.71 2684.91C1687.92 2680.38 1685.24 2676.25 1681.84 2672.77C1678.39 2669.21 1674.27 2666.37 1669.71 2664.42C1665.16 2662.47 1660.26 2661.45 1655.31 2661.41C1650.35 2661.37 1645.44 2662.32 1640.86 2664.2C1636.28 2666.09 1632.11 2668.86 1628.61 2672.37C1621.49 2679.47 1617.46 2689.1 1617.41 2699.16H1628.36C1628.3 2689.09 1624.26 2679.46 1617.12 2672.37C1613.61 2668.88 1609.45 2666.11 1604.87 2664.24C1600.29 2662.37 1595.39 2661.42 1590.44 2661.46C1585.49 2661.5 1580.6 2662.52 1576.05 2664.46C1571.5 2666.4 1567.38 2669.22 1563.93 2672.77C1560.52 2676.25 1557.85 2680.38 1556.06 2684.91C1554.28 2689.45 1553.41 2694.29 1553.53 2699.16H1562.03C1561.94 2694.37 1560.9 2689.64 1558.97 2685.26C1557.04 2680.87 1554.26 2676.91 1550.79 2673.61C1543.89 2667.12 1534.7 2663.65 1525.24 2663.94C1520.7 2664.09 1516.24 2665.14 1512.1 2667.02C1507.97 2668.89 1504.25 2671.57 1501.15 2674.89C1498.2 2678.13 1495.94 2681.94 1494.5 2686.08C1493.05 2690.22 1492.46 2694.61 1492.75 2698.98Z" fill="#30302F"/>
<path d="M898.966 2519.42C917.049 2519.42 931.709 2504.76 931.709 2486.68C931.709 2468.59 917.049 2453.94 898.966 2453.94C880.883 2453.94 866.223 2468.59 866.223 2486.68C866.223 2504.76 880.883 2519.42 898.966 2519.42Z" fill="#30302F"/>
<path d="M894.841 2561.73L899.222 2551.69L880.35 2543.29C876.992 2541.83 875.824 2539.35 876.043 2538.73L923.496 2406.41C923.644 2406.19 923.864 2406.04 924.116 2405.97C925.043 2405.67 926.022 2405.56 926.993 2405.64C927.965 2405.72 928.911 2405.99 929.774 2406.45L961.422 2420.32L965.802 2410.28L934.191 2396.41C931.949 2395.35 929.514 2394.76 927.035 2394.67C924.556 2394.58 922.085 2395 919.773 2395.9C918.268 2396.51 916.908 2397.44 915.778 2398.61C914.647 2399.77 913.77 2401.16 913.202 2402.69L865.749 2535.04C863.303 2541.83 867.684 2549.65 875.933 2553.3L894.841 2561.73Z" fill="#30302F"/>
<path d="M912.252 2488.43L1015.08 2530.45L1119.95 2087.78L1308.52 1629.02L1188.25 1451.25L1085.24 2067.6L912.252 2488.43Z" fill="#EE465E"/>
<path d="M1305 1669.15L1293.37 1664.05C1273.15 1655.19 1257.28 1638.66 1249.26 1618.1C1241.23 1597.54 1241.69 1574.63 1250.56 1554.41L1255.66 1542.78C1256.82 1540.12 1259 1538.03 1261.7 1536.98C1264.41 1535.92 1267.42 1535.98 1270.08 1537.15L1347.91 1571.26C1350.57 1572.43 1352.66 1574.6 1353.71 1577.31C1354.77 1580.01 1354.71 1583.03 1353.54 1585.69L1319.43 1663.52C1318.26 1666.18 1316.09 1668.27 1313.38 1669.32C1310.68 1670.38 1307.66 1670.32 1305 1669.15Z" fill="#4E4F50"/>
<path d="M1324.84 1610.62L1328.78 1612.34C1330.22 1612.98 1331.76 1613.32 1333.33 1613.36C1334.89 1613.39 1336.45 1613.12 1337.91 1612.55C1339.37 1611.98 1340.7 1611.12 1341.83 1610.03C1342.96 1608.95 1343.86 1607.65 1344.48 1606.21L1332.98 1632.45C1331.71 1635.34 1329.34 1637.61 1326.4 1638.76C1323.46 1639.91 1320.18 1639.85 1317.29 1638.59L1313.34 1636.83C1291.37 1627.18 1274.11 1609.2 1265.37 1586.85C1256.62 1564.49 1257.1 1539.58 1266.69 1517.58L1268.44 1513.64C1269.34 1511.62 1270.78 1509.89 1272.61 1508.64C1268.24 1529.05 1271.05 1550.35 1280.57 1568.93C1290.09 1587.51 1305.72 1602.24 1324.84 1610.62Z" fill="#79797A"/>
<path d="M913.421 2485.88L865.968 2594.18L1105.06 2698.98L1121.12 2662.47C1124.06 2655.8 1124.27 2648.24 1121.7 2641.41C1119.12 2634.59 1113.98 2629.04 1107.36 2625.97C1072.9 2609.73 1015.12 2575.78 1015.08 2530.48L913.421 2485.88Z" fill="#C23E56"/>
<path d="M1207.23 1723.92C1185.55 1779.19 1165.98 1835.07 1147.11 1891.18C1137.47 1919.17 1128.6 1947.39 1119.37 1975.5L1092.79 2060.18C1075.4 2116.76 1058.82 2173.57 1043.08 2230.61C1027.31 2287.67 1012.23 2344.94 999.275 2402.87C1020.96 2347.6 1040.56 2291.75 1059.43 2235.65C1078.3 2179.55 1096.45 2123.19 1113.71 2066.61L1139.26 1981.56C1147.37 1953.08 1155.83 1924.76 1163.54 1896.14C1179.16 1839.12 1194.24 1781.85 1207.23 1723.92Z" fill="#4E4F50"/>
<path d="M866.551 2594.4C870.471 2586.93 877.11 2581.26 885.094 2578.56C892.762 2576 901.128 2576.56 908.383 2580.13C915.401 2583.53 920.783 2589.59 923.349 2596.95C925.882 2604.11 925.502 2611.98 922.291 2618.86L930.066 2622.25C933.258 2615.52 938.937 2610.28 945.908 2607.65C950.968 2605.72 956.485 2605.33 961.766 2606.53C967.046 2607.73 971.854 2610.46 975.585 2614.39C979.315 2618.31 981.801 2623.25 982.729 2628.59C983.658 2633.92 982.988 2639.42 980.804 2644.37L990.806 2648.75C992.211 2645.45 994.253 2642.47 996.815 2639.96C999.377 2637.46 1002.41 2635.48 1005.74 2634.15C1012.5 2631.52 1020.04 2631.64 1026.71 2634.49C1033.39 2637.34 1038.69 2642.7 1041.47 2649.41C1044.23 2656.28 1044.23 2663.96 1041.47 2670.83L1049.32 2674.27C1052.19 2667.25 1057.69 2661.64 1064.65 2658.64C1071.81 2655.55 1079.91 2655.42 1087.17 2658.28C1094.71 2661.19 1100.8 2666.96 1104.11 2674.34C1107.55 2682.03 1107.88 2690.76 1105.02 2698.69C1107.05 2694.78 1108.27 2690.5 1108.59 2686.1C1108.92 2681.71 1108.35 2677.3 1106.92 2673.13C1105.45 2668.82 1103.15 2664.84 1100.13 2661.43C1097.12 2658.01 1093.46 2655.23 1089.36 2653.24C1080.8 2649.18 1070.98 2648.68 1062.06 2651.85C1057.51 2653.52 1053.35 2656.08 1049.8 2659.38C1046.25 2662.67 1043.4 2666.64 1041.4 2671.05L1049.25 2674.48C1051.31 2670.07 1052.46 2665.28 1052.64 2660.41C1052.83 2655.54 1052.03 2650.68 1050.3 2646.12C1048.58 2641.47 1045.95 2637.21 1042.57 2633.59C1039.19 2629.96 1035.12 2627.04 1030.59 2625.01C1026.07 2622.97 1021.19 2621.85 1016.24 2621.71C1011.28 2621.58 1006.34 2622.43 1001.72 2624.22C992.334 2627.85 984.773 2635.06 980.695 2644.26L990.696 2648.64C992.678 2644.07 993.741 2639.16 993.822 2634.18C993.904 2629.2 993.003 2624.25 991.171 2619.62C989.369 2615.01 986.669 2610.81 983.228 2607.25C979.786 2603.69 975.672 2600.85 971.124 2598.9C966.576 2596.95 961.685 2595.92 956.736 2595.87C951.786 2595.83 946.877 2596.76 942.294 2598.63C937.776 2600.46 933.669 2603.17 930.215 2606.6C926.761 2610.04 924.029 2614.13 922.181 2618.64L929.956 2622.03C931.808 2617.61 932.762 2612.86 932.762 2608.07C932.762 2603.27 931.808 2598.53 929.956 2594.11C928.117 2589.8 925.445 2585.89 922.094 2582.62C918.742 2579.34 914.778 2576.76 910.427 2575.02C906.196 2573.34 901.675 2572.52 897.126 2572.61C892.576 2572.7 888.09 2573.69 883.926 2575.53C879.912 2577.35 876.306 2579.95 873.321 2583.2C870.336 2586.44 868.034 2590.25 866.551 2594.4Z" fill="#30302F"/>
<path d="M1105.39 2136.66C1135.18 2136.66 1159.34 2112.5 1159.34 2082.7C1159.34 2052.91 1135.18 2028.75 1105.39 2028.75C1075.59 2028.75 1051.44 2052.91 1051.44 2082.7C1051.44 2112.5 1075.59 2136.66 1105.39 2136.66Z" fill="#4E4F50"/>
<path d="M1105.39 2113.55C1122.42 2113.55 1136.23 2099.74 1136.23 2082.7C1136.23 2065.67 1122.42 2051.86 1105.39 2051.86C1088.35 2051.86 1074.54 2065.67 1074.54 2082.7C1074.54 2099.74 1088.35 2113.55 1105.39 2113.55Z" fill="#EE465E"/>
<path d="M1496.33 2188.39C1526.12 2188.39 1550.28 2164.23 1550.28 2134.43C1550.28 2104.64 1526.12 2080.48 1496.33 2080.48C1466.53 2080.48 1442.38 2104.64 1442.38 2134.43C1442.38 2164.23 1466.53 2188.39 1496.33 2188.39Z" fill="#4E4F50"/>
<path d="M1496.33 2165.27C1513.36 2165.27 1527.17 2151.46 1527.17 2134.43C1527.17 2117.39 1513.36 2103.58 1496.33 2103.58C1479.29 2103.58 1465.48 2117.39 1465.48 2134.43C1465.48 2151.46 1479.29 2165.27 1496.33 2165.27Z" fill="#EE465E"/>
<path d="M1173.21 1586.93C1276.3 1611.54 1383.63 1612.48 1487.13 1589.67C1485.87 1567.64 1488.02 1545.55 1493.48 1524.18C1501.62 1493.02 1516.58 1464.06 1537.28 1439.39C1538.25 1438.23 1538.87 1436.81 1539.06 1435.32C1539.25 1433.82 1539.01 1432.3 1538.37 1430.93C1537.72 1429.57 1536.7 1428.41 1535.42 1427.61C1534.14 1426.8 1532.66 1426.38 1531.15 1426.39H1128.53C1127.08 1426.39 1125.65 1426.78 1124.41 1427.53C1123.16 1428.29 1122.15 1429.37 1121.48 1430.65C1120.81 1431.94 1120.51 1433.39 1120.6 1434.84C1120.7 1436.29 1121.2 1437.69 1122.03 1438.87C1140.54 1465.74 1154.46 1495.49 1163.21 1526.92C1168.65 1546.51 1172 1566.63 1173.21 1586.93Z" fill="#30302F"/>
<path d="M1173.21 1586.93C1276.3 1611.54 1383.63 1612.48 1487.13 1589.67C1485.87 1567.64 1488.02 1545.55 1493.48 1524.18C1501.62 1493.02 1516.58 1464.06 1537.28 1439.39C1538.25 1438.23 1538.87 1436.81 1539.06 1435.32C1539.25 1433.82 1539.01 1432.3 1538.37 1430.93C1537.72 1429.57 1536.7 1428.41 1535.42 1427.61C1534.14 1426.8 1532.66 1426.38 1531.15 1426.39H1128.53C1127.08 1426.39 1125.65 1426.78 1124.41 1427.53C1123.16 1428.29 1122.15 1429.37 1121.48 1430.65C1120.81 1431.94 1120.51 1433.39 1120.6 1434.84C1120.7 1436.29 1121.2 1437.69 1122.03 1438.87C1140.54 1465.74 1154.46 1495.49 1163.21 1526.92C1168.65 1546.51 1172 1566.63 1173.21 1586.93Z" fill="#EE465E"/>
<path d="M1163.21 1526.85C1162.59 1524.51 1161.86 1522.32 1161.16 1520.06C1189.09 1534.84 1220.55 1535.75 1286 1532.69C1345.72 1529.84 1394.12 1473.96 1419.34 1426.32H1530.06C1529.84 1434.06 1529.55 1441.76 1529.18 1449.5C1499.02 1489.75 1484.08 1539.38 1487.02 1589.6C1383.52 1612.4 1276.19 1611.47 1173.1 1586.86C1171.93 1566.56 1168.61 1546.45 1163.21 1526.85Z" fill="#C23E56"/>
<path d="M1268.52 1520.39C1286.41 1506.5 1308.26 1498.66 1330.91 1498C1353.55 1497.35 1375.82 1503.91 1394.49 1516.74L1403.1 1522.65C1415.9 1531.53 1430.74 1536.99 1446.24 1538.53C1461.73 1540.07 1477.37 1537.63 1491.66 1531.45C1490.96 1534.55 1490.38 1537.65 1489.83 1540.64C1474.83 1546.24 1458.69 1548.12 1442.8 1546.13C1426.91 1544.14 1411.74 1538.34 1398.58 1529.22L1389.96 1523.31C1372.69 1511.4 1352.08 1505.3 1331.11 1505.89C1310.14 1506.48 1289.91 1513.73 1273.34 1526.59C1258.15 1538.33 1239.9 1545.44 1220.78 1547.08C1201.66 1548.72 1182.47 1544.81 1165.51 1535.83C1164.78 1532.83 1164.01 1529.8 1163.14 1526.74C1163.14 1526.12 1162.77 1525.57 1162.62 1524.99C1178.6 1535.21 1197.35 1540.24 1216.3 1539.4C1235.25 1538.55 1253.47 1531.88 1268.48 1520.28L1268.52 1520.39Z" fill="#545554"/>
<path d="M1359.77 1501.29C1372.18 1504.37 1383.93 1509.64 1394.49 1516.84L1403.1 1522.76C1415.9 1531.63 1430.74 1537.1 1446.24 1538.64C1461.73 1540.18 1477.37 1537.74 1491.66 1531.55C1490.96 1534.66 1490.38 1537.76 1489.83 1540.75C1474.83 1546.35 1458.69 1548.23 1442.8 1546.24C1426.91 1544.25 1411.74 1538.45 1398.58 1529.33L1389.96 1523.41C1378.45 1515.53 1365.4 1510.15 1351.67 1507.64C1354.37 1505.6 1357.11 1503.48 1359.77 1501.29ZM1212.19 1539.47C1222.85 1539.44 1233.42 1537.58 1243.44 1533.96C1249.54 1533.96 1256.03 1533.74 1262.97 1533.52C1248.29 1542.23 1231.61 1547.02 1214.54 1547.42C1197.47 1547.83 1180.59 1543.83 1165.51 1535.82C1164.78 1532.83 1164.01 1529.8 1163.14 1526.74C1163.14 1526.11 1162.77 1525.57 1162.62 1524.98C1177.43 1534.43 1194.63 1539.45 1212.19 1539.47Z" fill="#484748"/>
<path d="M1410.07 1434.28C1380.51 1428.34 1350.56 1424.46 1320.46 1422.67C1290.67 1420.66 1260.93 1420.12 1231.18 1420.52C1223.88 1420.52 1216.32 1420.74 1208.87 1421.03C1201.43 1421.32 1194.02 1421.5 1186.57 1421.94C1179.12 1422.38 1171.71 1422.71 1164.3 1423.29L1153.13 1424.09L1147.58 1424.57H1145.72C1144.4 1424.68 1143.08 1424.89 1141.78 1425.19C1139.02 1425.83 1136.4 1426.95 1134.04 1428.51C1129.43 1431.57 1126.08 1436.18 1124.59 1441.51C1123.09 1446.74 1123.52 1452.33 1125.79 1457.28C1126.33 1458.45 1126.98 1459.58 1127.73 1460.63L1128.2 1461.33L1128.42 1461.62L1128.86 1462.13L1130.65 1464.21L1134.3 1468.3C1138.93 1473.74 1143.28 1478.96 1147.29 1484.69C1155.43 1496.04 1162.44 1509.51 1170.98 1522.54C1171.58 1506.93 1169.73 1491.33 1165.51 1476.29C1163.18 1468.57 1160.16 1461.07 1156.49 1453.88L1153.83 1448.66L1152.44 1446.14L1152.11 1445.49L1151.93 1445.19C1152.15 1445.47 1152.36 1445.77 1152.55 1446.07C1153.51 1447.56 1153.88 1449.37 1153.57 1451.12C1153.27 1452.87 1152.32 1454.44 1150.91 1455.52C1150.13 1456.11 1149.25 1456.56 1148.31 1456.84C1147.93 1456.94 1147.54 1457.03 1147.15 1457.09C1146.82 1457.09 1147.15 1457.09 1147.4 1457.09H1148.1L1153.68 1457.31L1164.85 1457.57C1172.15 1457.75 1179.74 1457.79 1187.19 1457.79C1194.64 1457.79 1202.12 1457.79 1209.57 1457.6C1217.01 1457.42 1224.46 1457.24 1231.91 1456.98C1261.66 1455.89 1291.44 1453.84 1321.15 1450.38C1351.13 1447.08 1380.84 1441.7 1410.07 1434.28Z" fill="#EA5F7A"/>
<path d="M1328.67 1613.29C1275.74 1612.69 1223.03 1606.22 1171.53 1593.98L1166.27 1592.7L1165.95 1587.3C1162.82 1535.51 1145.55 1485.58 1116.01 1442.93C1114.44 1440.64 1113.52 1437.97 1113.35 1435.2C1113.18 1432.42 1113.77 1429.66 1115.06 1427.2C1116.35 1424.74 1118.29 1422.68 1120.66 1421.24C1123.03 1419.79 1125.75 1419.03 1128.53 1419.02H1531.04C1533.94 1419.01 1536.78 1419.84 1539.22 1421.39C1541.67 1422.94 1543.62 1425.15 1544.85 1427.77C1546.08 1430.4 1546.54 1433.31 1546.17 1436.18C1545.8 1439.06 1544.61 1441.76 1542.76 1443.99C1508.6 1484.39 1491.26 1536.37 1494.32 1589.19L1494.65 1595.4L1488.59 1596.71C1438.49 1607.74 1387.35 1613.31 1336.05 1613.32L1328.67 1613.29ZM1486.33 1522.29C1494.69 1490.08 1510.14 1460.15 1531.55 1434.68C1531.63 1434.59 1531.67 1434.48 1531.67 1434.37C1531.67 1434.25 1531.63 1434.14 1531.55 1434.06C1531.52 1433.93 1531.44 1433.82 1531.34 1433.75C1531.23 1433.68 1531.1 1433.64 1530.97 1433.66H1128.53C1128.42 1433.65 1128.3 1433.67 1128.2 1433.73C1128.11 1433.79 1128.03 1433.88 1127.98 1433.99C1127.92 1434.1 1127.88 1434.22 1127.88 1434.35C1127.88 1434.48 1127.92 1434.61 1127.98 1434.72C1157.97 1478.01 1175.95 1528.48 1180.11 1580.98C1278.49 1603.66 1380.64 1604.61 1479.43 1583.76C1478.84 1563.04 1481.16 1542.35 1486.33 1522.29Z" fill="#EE465E"/>
<path d="M1369.67 904.148H1296.15V998.617H1369.67V904.148Z" fill="#474748"/>
<path d="M1426.83 950.107H1238.95C1237.68 950.11 1236.43 949.839 1235.27 949.313C1234.11 948.787 1233.09 948.018 1232.25 947.058C1231.42 946.098 1230.81 944.971 1230.45 943.752C1230.1 942.534 1230.01 941.252 1230.19 939.996L1271.8 658.562C1272.1 656.462 1273.15 654.542 1274.75 653.153C1276.36 651.765 1278.41 651.002 1280.53 651.006H1385.25C1387.37 651.009 1389.43 651.773 1391.03 653.159C1392.64 654.546 1393.7 656.463 1394.01 658.562L1435.63 939.996C1435.81 941.255 1435.72 942.54 1435.36 943.761C1435 944.982 1434.38 946.112 1433.55 947.072C1432.71 948.032 1431.68 948.801 1430.52 949.324C1429.36 949.848 1428.1 950.115 1426.83 950.107Z" fill="#EE465E"/>
<path d="M1426.83 950.107C1428.1 950.11 1429.35 949.839 1430.51 949.313C1431.66 948.787 1432.69 948.018 1433.52 947.058C1434.36 946.098 1434.97 944.971 1435.33 943.752C1435.68 942.534 1435.77 941.252 1435.59 939.996L1426.9 881.264C1376.75 863.341 1337.58 810.741 1318.34 769.201C1308.56 748.029 1294.4 694.152 1283.37 651.006H1280.53C1278.41 651.002 1276.36 651.765 1274.75 653.153C1273.15 654.542 1272.1 656.462 1271.8 658.562L1230.19 939.996C1230.01 941.252 1230.1 942.534 1230.45 943.752C1230.81 944.971 1231.42 946.098 1232.25 947.058C1233.09 948.018 1234.11 948.787 1235.27 949.313C1236.43 949.839 1237.68 950.11 1238.95 950.107H1426.83Z" fill="#D13F5B"/>
<path d="M1429.46 898.602C1416.36 895.658 1404.05 889.904 1393.39 881.738C1375.5 867.846 1353.66 860.006 1331.02 859.35C1308.38 858.693 1286.12 865.256 1267.46 878.087L1258.84 883.964C1252.08 888.656 1244.71 892.413 1236.94 895.134L1235.66 903.931C1245.57 900.931 1254.96 896.411 1263.48 890.535L1272.09 884.621C1289.36 872.734 1309.97 866.645 1330.92 867.236C1351.88 867.826 1372.11 875.065 1388.68 887.907C1401.08 897.408 1415.51 903.894 1430.84 906.851L1429.46 898.602Z" fill="#4E4F50"/>
<path opacity="0.51" d="M818.734 1944.95L1114.22 1866.84C1118.96 1865.58 1124.01 1866.25 1128.25 1868.71C1132.49 1871.16 1135.59 1875.21 1136.85 1879.94L1188.21 2072.42C1189.47 2077.16 1188.8 2082.2 1186.34 2086.45C1183.89 2090.69 1179.84 2093.78 1175.11 2095.05L843.483 2169.66C842.667 2169.87 841.838 2170.03 841.001 2170.14C838.289 2170.36 835.562 2169.95 833.028 2168.96C830.494 2167.97 828.219 2166.42 826.375 2164.41C824.532 2162.41 823.169 2160.02 822.389 2157.41C821.609 2154.8 821.432 2152.05 821.874 2149.37L805.557 1967.44C804.344 1962.71 805.048 1957.69 807.516 1953.48C809.984 1949.27 814.016 1946.21 818.734 1944.95Z" fill="url(#paint8_linear_60_703)"/>
<path d="M846.732 1935.24L1151.78 1853.81C1156.52 1852.55 1161.57 1853.22 1165.81 1855.68C1170.05 1858.13 1173.15 1862.17 1174.41 1866.91L1231.21 2079.72C1231.84 2082.07 1232 2084.51 1231.68 2086.92C1231.36 2089.33 1230.57 2091.65 1229.36 2093.75C1228.14 2095.86 1226.52 2097.7 1224.59 2099.17C1222.66 2100.65 1220.46 2101.73 1218.11 2102.35L1116.67 2129.44C1113.8 2130.2 1110.8 2130.27 1107.9 2129.63C1105.01 2129 1102.3 2127.68 1100.02 2125.79L1057.06 2089.76C1054.79 2087.84 1052.09 2086.51 1049.19 2085.87C1046.29 2085.24 1043.28 2085.32 1040.41 2086.11L897.215 2124.33C892.476 2125.59 887.431 2124.91 883.188 2122.46C878.945 2120 875.85 2115.96 874.583 2111.22L833.664 1957.91C833.029 1955.57 832.864 1953.12 833.178 1950.71C833.492 1948.3 834.278 1945.97 835.492 1943.86C836.706 1941.76 838.324 1939.91 840.253 1938.43C842.181 1936.95 844.383 1935.87 846.732 1935.24Z" fill="#C4CEE5"/>
<path opacity="0.47" d="M1138.57 1900.64L1184.49 2061.36" stroke="url(#paint9_linear_60_703)" stroke-width="5" stroke-miterlimit="10"/>
<path opacity="0.47" d="M1097.94 1913.19L1143.82 2073.91" stroke="url(#paint10_linear_60_703)" stroke-width="5" stroke-miterlimit="10"/>
<path opacity="0.47" d="M1055.75 1925.75L1101.63 2086.47" stroke="url(#paint11_linear_60_703)" stroke-width="5" stroke-miterlimit="10"/>
<path d="M915.211 1450.97C935.189 1450.97 951.385 1434.77 951.385 1414.79C951.385 1394.81 935.189 1378.62 915.211 1378.62C895.232 1378.62 879.037 1394.81 879.037 1414.79C879.037 1434.77 895.232 1450.97 915.211 1450.97Z" fill="#30302F"/>
<path d="M897.397 1563.64C927.194 1563.64 951.348 1539.49 951.348 1509.69C951.348 1479.9 927.194 1455.74 897.397 1455.74C867.601 1455.74 843.447 1479.9 843.447 1509.69C843.447 1539.49 867.601 1563.64 897.397 1563.64Z" fill="#30302F"/>
<path d="M915.1 1640.73C935.079 1640.73 951.274 1624.54 951.274 1604.56C951.274 1584.58 935.079 1568.39 915.1 1568.39C895.122 1568.39 878.926 1584.58 878.926 1604.56C878.926 1624.54 895.122 1640.73 915.1 1640.73Z" fill="#30302F"/>
<path d="M1407.41 1358.39H1251.18V1419.2H1407.41V1358.39Z" fill="#4E4F50"/>
<path d="M1510.9 1377.26L1483.3 1380.66C1381.01 1393.18 1277.58 1393.18 1175.29 1380.66L1147.7 1377.26C1144.22 1376.84 1140.99 1375.27 1138.5 1372.82C1136.01 1370.36 1134.41 1367.15 1133.93 1363.69L1130.79 1340.58C1118.21 1247.87 1115.93 1154.04 1124.01 1060.82L1126.52 1031.81C1126.85 1028.06 1128.5 1024.55 1131.17 1021.91C1133.85 1019.27 1137.38 1017.67 1141.12 1017.39L1230.3 1010.41C1296.24 1005.23 1362.49 1005.23 1428.44 1010.41L1517.54 1017.5C1521.29 1017.77 1524.82 1019.37 1527.5 1022.01C1530.17 1024.66 1531.82 1028.17 1532.14 1031.91L1534.66 1060.93C1542.73 1154.15 1540.46 1247.97 1527.87 1340.69L1524.73 1363.8C1524.23 1367.25 1522.6 1370.45 1520.1 1372.88C1517.6 1375.32 1514.36 1376.86 1510.9 1377.26Z" fill="#F6BE1D"/>
<path d="M1524.66 1363.69L1527.8 1340.58C1531.42 1313.81 1534.17 1287.1 1536.05 1260.46C1484.94 1311.16 1464.94 1315.94 1363.83 1311.2C1299.03 1308.13 1247.49 1242.57 1224.5 1192.89C1207.92 1157.05 1178.8 1027.35 1173.61 1014.83L1141.05 1017.39C1137.3 1017.67 1133.78 1019.27 1131.1 1021.91C1128.43 1024.55 1126.78 1028.06 1126.45 1031.81L1123.93 1060.83C1115.86 1154.04 1118.13 1247.87 1130.72 1340.58L1133.86 1363.69C1134.33 1367.15 1135.94 1370.36 1138.43 1372.82C1140.92 1375.27 1144.15 1376.84 1147.62 1377.27L1175.22 1380.66C1277.51 1393.18 1380.94 1393.18 1483.23 1380.66L1510.82 1377.27C1514.31 1376.85 1517.55 1375.3 1520.06 1372.84C1522.56 1370.38 1524.18 1367.16 1524.66 1363.69Z" fill="#EE9E23"/>
<path d="M1674.02 1245.75C1694 1245.75 1710.2 1229.55 1710.2 1209.57C1710.2 1189.59 1694 1173.4 1674.02 1173.4C1654.05 1173.4 1637.85 1189.59 1637.85 1209.57C1637.85 1229.55 1654.05 1245.75 1674.02 1245.75Z" fill="#30302F"/>
<path d="M1764.19 1296.66C1793.98 1296.66 1818.14 1272.51 1818.14 1242.71C1818.14 1212.92 1793.98 1188.76 1764.19 1188.76C1734.39 1188.76 1710.23 1212.92 1710.23 1242.71C1710.23 1272.51 1734.39 1296.66 1764.19 1296.66Z" fill="#30302F"/>
<path d="M1801.09 1198.29C1821.07 1198.29 1837.26 1182.1 1837.26 1162.12C1837.26 1142.14 1821.07 1125.95 1801.09 1125.95C1781.11 1125.95 1764.92 1142.14 1764.92 1162.12C1764.92 1182.1 1781.11 1198.29 1801.09 1198.29Z" fill="#30302F"/>
<path d="M1379.81 1049.98L1786.6 1282.1L1848.8 893.754" stroke="#F6BE1D" stroke-width="16" stroke-linejoin="round"/>
<path d="M1774.26 1317.51C1804.06 1317.51 1828.21 1293.35 1828.21 1263.56C1828.21 1233.76 1804.06 1209.61 1774.26 1209.61C1744.46 1209.61 1720.31 1233.76 1720.31 1263.56C1720.31 1293.35 1744.46 1317.51 1774.26 1317.51Z" fill="#4E4F50"/>
<path d="M1774.26 1294.4C1791.29 1294.4 1805.1 1280.59 1805.1 1263.56C1805.1 1246.52 1791.29 1232.71 1774.26 1232.71C1757.22 1232.71 1743.42 1246.52 1743.42 1263.56C1743.42 1280.59 1757.22 1294.4 1774.26 1294.4Z" fill="#30302F"/>
<path d="M1670.74 1268.85C1690.72 1268.85 1706.91 1252.66 1706.91 1232.68C1706.91 1212.7 1690.72 1196.5 1670.74 1196.5C1650.76 1196.5 1634.56 1212.7 1634.56 1232.68C1634.56 1252.66 1650.76 1268.85 1670.74 1268.85Z" fill="#4E4F50"/>
<path d="M1670.74 1250.97C1680.84 1250.97 1689.03 1242.78 1689.03 1232.68C1689.03 1222.58 1680.84 1214.39 1670.74 1214.39C1660.64 1214.39 1652.45 1222.58 1652.45 1232.68C1652.45 1242.78 1660.64 1250.97 1670.74 1250.97Z" fill="#30302F"/>
<path d="M1816.09 1203.58C1836.07 1203.58 1852.27 1187.39 1852.27 1167.41C1852.27 1147.43 1836.07 1131.23 1816.09 1131.23C1796.11 1131.23 1779.92 1147.43 1779.92 1167.41C1779.92 1187.39 1796.11 1203.58 1816.09 1203.58Z" fill="#4E4F50"/>
<path d="M1816.09 1185.7C1826.19 1185.7 1834.38 1177.51 1834.38 1167.41C1834.38 1157.31 1826.19 1149.12 1816.09 1149.12C1805.99 1149.12 1797.8 1157.31 1797.8 1167.41C1797.8 1177.51 1805.99 1185.7 1816.09 1185.7Z" fill="#30302F"/>
<path d="M1966.81 903.17L1943.45 881.816C1938.39 887.357 1932.29 891.848 1925.5 895.032C1918.71 898.216 1911.35 900.032 1903.86 900.374C1896.37 900.716 1888.88 899.579 1881.82 897.027C1874.77 894.476 1868.28 890.56 1862.74 885.502C1857.2 880.445 1852.71 874.346 1849.53 867.553C1846.34 860.76 1844.53 853.407 1844.18 845.912C1843.84 838.418 1844.98 830.93 1847.53 823.875C1850.08 816.82 1854 810.337 1859.06 804.795L1835.69 783.441C1820.29 800.884 1812.35 823.68 1813.59 846.919C1814.83 870.158 1825.15 891.979 1842.33 907.682C1859.51 923.384 1882.16 931.71 1905.42 930.866C1928.68 930.022 1950.67 920.075 1966.67 903.17H1966.81Z" fill="#EE9E23"/>
<path d="M1848.8 938.975C1868.78 938.975 1884.97 922.779 1884.97 902.801C1884.97 882.822 1868.78 866.627 1848.8 866.627C1828.82 866.627 1812.62 882.822 1812.62 902.801C1812.62 922.779 1828.82 938.975 1848.8 938.975Z" fill="#4E4F50"/>
<path d="M1848.8 921.091C1858.9 921.091 1867.09 912.903 1867.09 902.803C1867.09 892.703 1858.9 884.516 1848.8 884.516C1838.7 884.516 1830.51 892.703 1830.51 902.803C1830.51 912.903 1838.7 921.091 1848.8 921.091Z" fill="#EE9E23"/>
<path d="M1196.35 1162.15C1198.85 1162.15 1201.32 1161.66 1203.63 1160.7C1205.93 1159.75 1208.02 1158.35 1209.79 1156.58C1211.55 1154.81 1212.95 1152.72 1213.9 1150.41C1214.85 1148.1 1215.34 1145.63 1215.33 1143.13V1011.72L1141.05 1017.49C1137.3 1017.77 1133.78 1019.38 1131.1 1022.02C1128.43 1024.66 1126.78 1028.17 1126.45 1031.91L1123.93 1060.93C1121.01 1094.66 1119.45 1128.44 1119.26 1162.26L1196.35 1162.15ZM1518.01 1318.02C1520.51 1318.02 1522.98 1317.52 1525.29 1316.57C1527.59 1315.61 1529.68 1314.21 1531.45 1312.44C1533.21 1310.68 1534.61 1308.58 1535.56 1306.27C1536.51 1303.97 1537 1301.49 1536.99 1299V1167.41L1462.68 1173.25C1458.93 1173.54 1455.41 1175.14 1452.73 1177.78C1450.06 1180.42 1448.41 1183.92 1448.07 1187.67L1445.56 1216.69C1442.64 1250.41 1441.09 1284.19 1440.92 1318.02H1518.01Z" stroke="#F8E782" stroke-miterlimit="10"/>
<path d="M1430.88 1010.6V1108.46C1430.89 1112.66 1432.56 1116.68 1435.53 1119.64C1438.5 1122.6 1442.53 1124.27 1446.72 1124.27H1493.41C1497.61 1124.27 1501.63 1122.6 1504.6 1119.64C1507.57 1116.68 1509.24 1112.66 1509.25 1108.46V1016.73L1430.88 1010.6ZM1423.95 1302.22C1421.87 1302.21 1419.81 1302.62 1417.89 1303.41C1415.96 1304.2 1414.22 1305.36 1412.75 1306.83C1411.27 1308.3 1410.11 1310.04 1409.31 1311.96C1408.51 1313.88 1408.1 1315.94 1408.1 1318.02V1387.6C1433.22 1386.04 1458.28 1383.73 1483.3 1380.66L1510.89 1377.27C1514.37 1376.84 1517.6 1375.27 1520.09 1372.82C1522.58 1370.36 1524.18 1367.15 1524.66 1363.69L1527.8 1340.58C1529.51 1327.8 1531.01 1315.03 1532.36 1302.22H1423.95Z" fill="#EE9E23"/>
<path d="M1481.07 1302.21C1462.46 1310.21 1441.18 1312.76 1409.13 1312.58C1408.47 1314.32 1408.13 1316.16 1408.1 1318.02V1387.59C1433.02 1386.03 1457.88 1383.75 1482.68 1380.73H1483.3L1510.89 1377.33C1513.06 1377.09 1515.15 1376.39 1517.03 1375.3C1518.92 1374.21 1520.56 1372.74 1521.85 1370.98C1523.43 1368.84 1524.43 1366.32 1524.77 1363.68L1527.91 1340.58C1529.62 1327.8 1531.12 1315.02 1532.47 1302.21H1481.07ZM1177.85 1239.54H1121.23C1123.08 1273.31 1126.27 1306.99 1130.79 1340.58L1133.93 1363.68C1134.41 1367.15 1136.01 1370.36 1138.5 1372.81C1140.99 1375.27 1144.22 1376.83 1147.7 1377.26L1175.29 1380.66C1184.05 1381.71 1192.81 1382.59 1201.57 1383.47V1263.26C1201.57 1256.97 1199.07 1250.94 1194.62 1246.49C1190.17 1242.04 1184.14 1239.54 1177.85 1239.54Z" fill="#E77B26"/>
<path d="M1413.51 1009.39C1410.93 997.761 1404.46 987.359 1395.17 979.91C1385.88 972.461 1374.31 968.413 1362.4 968.436H1302.72C1290.92 968.44 1279.46 972.445 1270.23 979.797C1260.99 987.149 1254.52 997.414 1251.87 1008.92C1305.71 1005.61 1359.69 1005.77 1413.51 1009.39Z" fill="#4E4F50"/>
<path d="M1119.3 1216.72L1086.04 1172.55C1038.59 1081.3 1066.44 1064.69 1115.06 1038.08L1126.52 1031.8L1119.3 1216.72ZM1538.2 1216.72L1571.42 1172.55C1618.87 1081.3 1591.05 1064.69 1542.21 1038.08L1530.79 1031.8L1538.2 1216.72Z" fill="#EE9E23"/>
<path d="M1329.29 1397.96C1277.5 1397.97 1225.75 1394.81 1174.34 1388.51L1146.75 1385.15C1141.54 1384.51 1136.69 1382.16 1132.96 1378.48C1129.23 1374.79 1126.82 1369.98 1126.12 1364.78L1122.95 1341.64C1110.31 1248.34 1108.02 1153.93 1116.12 1060.13L1118.64 1031.11C1119.11 1025.49 1121.58 1020.22 1125.6 1016.26C1129.61 1012.3 1134.91 1009.9 1140.54 1009.5L1229.72 1002.49C1296.07 997.31 1362.73 997.31 1429.09 1002.49L1518.27 1009.5C1523.9 1009.89 1529.2 1012.29 1533.22 1016.25C1537.24 1020.21 1539.7 1025.49 1540.17 1031.11L1542.69 1060.13C1550.79 1153.93 1548.5 1248.34 1535.86 1341.64L1532.72 1364.78C1532 1369.98 1529.58 1374.79 1525.85 1378.47C1522.11 1382.15 1517.27 1384.5 1512.06 1385.15L1484.47 1388.51C1432.98 1394.82 1381.16 1397.98 1329.29 1397.96ZM1329.29 1014.43C1296.44 1014.43 1263.59 1015.71 1230.74 1018.3L1141.56 1025.27C1139.67 1025.41 1137.9 1026.23 1136.56 1027.57C1135.22 1028.91 1134.4 1030.68 1134.26 1032.57L1131.74 1061.59C1123.73 1154.21 1125.99 1247.43 1138.5 1339.56L1141.63 1362.7C1141.87 1364.43 1142.68 1366.04 1143.93 1367.27C1145.17 1368.5 1146.79 1369.28 1148.53 1369.49L1176.13 1372.88C1277.76 1385.33 1380.53 1385.33 1482.17 1372.88L1509.8 1369.49C1511.53 1369.28 1513.15 1368.5 1514.39 1367.27C1515.63 1366.04 1516.43 1364.43 1516.66 1362.7L1519.8 1339.56C1532.42 1247.42 1534.79 1154.17 1526.88 1061.52L1524.36 1032.5C1524.22 1030.61 1523.41 1028.83 1522.07 1027.49C1520.73 1026.16 1518.95 1025.34 1517.06 1025.2L1427.89 1018.23C1395.07 1015.71 1362.18 1014.43 1329.29 1014.43Z" fill="#E77B26"/>
<path d="M1078.67 1157.7C1072.16 1144.56 1067.12 1130.74 1063.63 1116.49C1060.23 1119.34 974.015 1194.93 921.89 1322.58C873.925 1440.05 842.132 1631.47 963.101 1876.44L998.581 1858.91C907.033 1673.55 893.308 1498.74 957.808 1339.3C999.312 1236.51 1061.69 1173.62 1078.67 1157.7Z" fill="#F6BE1D"/>
<path d="M875.35 1563.64C905.146 1563.64 929.3 1539.49 929.3 1509.69C929.3 1479.9 905.146 1455.74 875.35 1455.74C845.553 1455.74 821.399 1479.9 821.399 1509.69C821.399 1539.49 845.553 1563.64 875.35 1563.64Z" fill="#4E4F50"/>
<path d="M875.35 1540.54C892.385 1540.54 906.195 1526.73 906.195 1509.69C906.195 1492.66 892.385 1478.85 875.35 1478.85C858.315 1478.85 844.505 1492.66 844.505 1509.69C844.505 1526.73 858.315 1540.54 875.35 1540.54Z" fill="#30302F"/>
<path d="M897.398 1450.97C917.376 1450.97 933.572 1434.77 933.572 1414.79C933.572 1394.81 917.376 1378.62 897.398 1378.62C877.42 1378.62 861.224 1394.81 861.224 1414.79C861.224 1434.77 877.42 1450.97 897.398 1450.97Z" fill="#4E4F50"/>
<path d="M897.398 1433.07C907.498 1433.07 915.685 1424.89 915.685 1414.79C915.685 1404.69 907.498 1396.5 897.398 1396.5C887.297 1396.5 879.11 1404.69 879.11 1414.79C879.11 1424.89 887.297 1433.07 897.398 1433.07Z" fill="#30302F"/>
<path d="M897.287 1640.73C917.266 1640.73 933.461 1624.54 933.461 1604.56C933.461 1584.58 917.266 1568.39 897.287 1568.39C877.309 1568.39 861.113 1584.58 861.113 1604.56C861.113 1624.54 877.309 1640.73 897.287 1640.73Z" fill="#4E4F50"/>
<path d="M897.287 1622.85C907.387 1622.85 915.574 1614.66 915.574 1604.56C915.574 1594.46 907.387 1586.28 897.287 1586.28C887.187 1586.28 878.999 1594.46 878.999 1604.56C878.999 1614.66 887.187 1622.85 897.287 1622.85Z" fill="#30302F"/>
<path d="M933.023 1982.84C927.745 1972.31 924.614 1960.84 923.815 1949.09C923.015 1937.34 924.562 1925.55 928.365 1914.4C932.169 1903.26 938.153 1892.98 945.968 1884.17C953.783 1875.36 963.274 1868.2 973.887 1863.09C984.5 1857.99 996.022 1855.05 1007.78 1854.44C1019.54 1853.84 1031.31 1855.58 1042.39 1859.57C1053.47 1863.55 1063.65 1869.71 1072.33 1877.66C1081 1885.62 1088.01 1895.23 1092.94 1905.93L1064.43 1919.62C1057.67 1906.31 1045.97 1896.17 1031.82 1891.39C1017.68 1886.61 1002.23 1887.55 988.778 1894.03C975.326 1900.5 964.944 1911.98 959.858 1926.02C954.772 1940.06 955.386 1955.53 961.568 1969.11L933.023 1982.84Z" fill="#EE9E23"/>
<path d="M982.229 1907.64C1002.21 1907.64 1018.4 1891.45 1018.4 1871.47C1018.4 1851.49 1002.21 1835.3 982.229 1835.3C962.25 1835.3 946.055 1851.49 946.055 1871.47C946.055 1891.45 962.25 1907.64 982.229 1907.64Z" fill="#4E4F50"/>
<path d="M982.228 1889.76C992.328 1889.76 1000.52 1881.57 1000.52 1871.47C1000.52 1861.37 992.328 1853.19 982.228 1853.19C972.128 1853.19 963.94 1861.37 963.94 1871.47C963.94 1881.57 972.128 1889.76 982.228 1889.76Z" fill="#EE9E23"/>
<path d="M1184.86 1263.93C1188.63 1263.93 1191.68 1260.87 1191.68 1257.1C1191.68 1253.33 1188.63 1250.27 1184.86 1250.27C1181.09 1250.27 1178.03 1253.33 1178.03 1257.1C1178.03 1260.87 1181.09 1263.93 1184.86 1263.93Z" fill="#020202"/>
<path d="M1447.82 1111.49C1451.59 1111.49 1454.64 1108.44 1454.64 1104.67C1454.64 1100.9 1451.59 1097.84 1447.82 1097.84C1444.05 1097.84 1440.99 1100.9 1440.99 1104.67C1440.99 1108.44 1444.05 1111.49 1447.82 1111.49Z" fill="#020202"/>
<path d="M1495.82 1111.49C1499.59 1111.49 1502.65 1108.44 1502.65 1104.67C1502.65 1100.9 1499.59 1097.84 1495.82 1097.84C1492.05 1097.84 1488.99 1100.9 1488.99 1104.67C1488.99 1108.44 1492.05 1111.49 1495.82 1111.49Z" fill="#020202"/>
<path d="M1495.82 1045.45C1499.59 1045.45 1502.65 1042.4 1502.65 1038.63C1502.65 1034.86 1499.59 1031.8 1495.82 1031.8C1492.05 1031.8 1488.99 1034.86 1488.99 1038.63C1488.99 1042.4 1492.05 1045.45 1495.82 1045.45Z" fill="#020202"/>
<path d="M1447.82 1038.63C1451.59 1038.63 1454.64 1035.57 1454.64 1031.8C1454.64 1028.03 1451.59 1024.98 1447.82 1024.98C1444.05 1024.98 1440.99 1028.03 1440.99 1031.8C1440.99 1035.57 1444.05 1038.63 1447.82 1038.63Z" fill="#020202"/>
<path d="M1424.05 1325.18C1427.82 1325.18 1430.88 1322.12 1430.88 1318.35C1430.88 1314.58 1427.82 1311.52 1424.05 1311.52C1420.29 1311.52 1417.23 1314.58 1417.23 1318.35C1417.23 1322.12 1420.29 1325.18 1424.05 1325.18Z" fill="#020202"/>
<path d="M1509.25 1324.85C1513.02 1324.85 1516.08 1321.79 1516.08 1318.02C1516.08 1314.25 1513.02 1311.2 1509.25 1311.2C1505.48 1311.2 1502.43 1314.25 1502.43 1318.02C1502.43 1321.79 1505.48 1324.85 1509.25 1324.85Z" fill="#020202"/>
<path d="M1142.47 1263.93C1146.24 1263.93 1149.3 1260.87 1149.3 1257.1C1149.3 1253.33 1146.24 1250.27 1142.47 1250.27C1138.7 1250.27 1135.65 1253.33 1135.65 1257.1C1135.65 1260.87 1138.7 1263.93 1142.47 1263.93Z" fill="#020202"/>
<path d="M1188.07 1368.43C1191.84 1368.43 1194.89 1365.37 1194.89 1361.6C1194.89 1357.83 1191.84 1354.78 1188.07 1354.78C1184.3 1354.78 1181.24 1357.83 1181.24 1361.6C1181.24 1365.37 1184.3 1368.43 1188.07 1368.43Z" fill="#020202"/>
<path d="M1424.05 1372.04C1427.82 1372.04 1430.88 1368.99 1430.88 1365.22C1430.88 1361.45 1427.82 1358.39 1424.05 1358.39C1420.29 1358.39 1417.23 1361.45 1417.23 1365.22C1417.23 1368.99 1420.29 1372.04 1424.05 1372.04Z" fill="#020202"/>
<path d="M917.949 1916.22L1017.24 1889.72L980.039 1954.51L967.592 1972.69L946.092 1984.96L922.001 1982.84L917.949 1916.22Z" fill="#C4CEE5"/>
<path d="M3149.31 1249.46V1691.69" stroke="#3E5FAB" stroke-width="3" stroke-miterlimit="10"/>
<path d="M3332.55 1056.98H2966.03C2956.78 1056.98 2949.27 1064.48 2949.27 1073.74V1321.66C2949.27 1330.92 2956.78 1338.42 2966.03 1338.42H3332.55C3341.8 1338.42 3349.31 1330.92 3349.31 1321.66V1073.74C3349.31 1064.48 3341.8 1056.98 3332.55 1056.98Z" fill="#F9BF1F"/>
<path d="M3149.31 1767.54C3212.59 1767.54 3263.89 1716.24 3263.89 1652.96C3263.89 1589.68 3212.59 1538.38 3149.31 1538.38C3086.03 1538.38 3034.73 1589.68 3034.73 1652.96C3034.73 1716.24 3086.03 1767.54 3149.31 1767.54Z" fill="#3E5FAB"/>
<path d="M3149.31 1767.54C3212.59 1767.54 3263.89 1716.24 3263.89 1652.96C3263.89 1589.68 3212.59 1538.38 3149.31 1538.38C3086.03 1538.38 3034.73 1589.68 3034.73 1652.96C3034.73 1716.24 3086.03 1767.54 3149.31 1767.54Z" fill="#3E5FAB"/>
<path d="M3149.31 1506.73C3187.61 1506.73 3218.66 1475.68 3218.66 1437.38C3218.66 1399.07 3187.61 1368.02 3149.31 1368.02C3111 1368.02 3079.95 1399.07 3079.95 1437.38C3079.95 1475.68 3111 1506.73 3149.31 1506.73Z" fill="#3E5FAB"/>
<path opacity="0.25" d="M3101.2 1056.99L3021.22 1338.42H2966.03C2963.83 1338.42 2961.65 1337.99 2959.62 1337.14C2957.59 1336.3 2955.74 1335.07 2954.18 1333.51C2952.63 1331.96 2951.39 1330.11 2950.55 1328.08C2949.71 1326.04 2949.27 1323.87 2949.27 1321.67V1312.36L3021.88 1056.84L3101.2 1056.99Z" fill="white"/>
<path opacity="0.25" d="M3267.8 1056.98L3187.82 1338.42H3055.13L3135.22 1056.98H3267.8Z" fill="white"/>
<path d="M3171.72 1371.82C3162.2 1368.61 3152.09 1367.5 3142.1 1368.57C3132.11 1369.65 3122.47 1372.88 3113.85 1378.05C3105.23 1383.22 3097.83 1390.2 3092.18 1398.51C3086.52 1406.82 3082.74 1416.26 3081.1 1426.17C3079.45 1436.09 3079.98 1446.24 3082.65 1455.93C3085.32 1465.62 3090.06 1474.62 3096.55 1482.3C3103.03 1489.97 3111.11 1496.15 3120.22 1500.39C3129.33 1504.64 3139.26 1506.85 3149.31 1506.88C3151.75 1506.88 3154.16 1506.88 3156.61 1506.52C3137.01 1490.13 3110.91 1478.52 3110.91 1447.68C3110.83 1407.34 3155.18 1399.82 3171.72 1371.82ZM3034.73 1652.97C3034.73 1683.35 3046.8 1712.5 3068.29 1733.99C3089.78 1755.48 3118.92 1767.55 3149.31 1767.55C3157.21 1767.55 3165.08 1766.74 3172.82 1765.14C3176.18 1758.68 3177.91 1751.5 3177.85 1744.22C3177.85 1694.76 3110.83 1694.76 3110.83 1645.3C3110.83 1595.84 3177.85 1595.88 3177.85 1546.42C3177.85 1544.88 3177.6 1543.49 3177.49 1542.03C3160.58 1537.66 3142.9 1537.22 3125.79 1540.75C3108.69 1544.28 3092.62 1551.69 3078.83 1562.4C3065.04 1573.12 3053.9 1586.85 3046.25 1602.55C3038.6 1618.26 3034.66 1635.5 3034.73 1652.97Z" fill="#8EB8E2"/>
<path d="M3183 767.5L3059.25 838.947L3059.25 696.053L3183 767.5Z" fill="#F0F3F8"/>
<defs>
<linearGradient id="paint0_linear_60_703" x1="594.682" y1="2751.33" x2="584.425" y2="2470.73" gradientUnits="userSpaceOnUse">
<stop stop-color="white" stop-opacity="0"/>
<stop offset="0.01" stop-color="#FCFDFE" stop-opacity="0.02"/>
<stop offset="0.14" stop-color="#D1DDEF" stop-opacity="0.27"/>
<stop offset="0.28" stop-color="#ACC2E1" stop-opacity="0.5"/>
<stop offset="0.43" stop-color="#8EACD6" stop-opacity="0.68"/>
<stop offset="0.57" stop-color="#769ACE" stop-opacity="0.82"/>
<stop offset="0.71" stop-color="#658EC8" stop-opacity="0.92"/>
<stop offset="0.85" stop-color="#5B86C4" stop-opacity="0.98"/>
<stop offset="1" stop-color="#5884C3"/>
</linearGradient>
<linearGradient id="paint1_linear_60_703" x1="2076.21" y1="2552.6" x2="2076.21" y2="1312.54" gradientUnits="userSpaceOnUse">
<stop stop-color="white" stop-opacity="0"/>
<stop offset="0.01" stop-color="#FCFDFE" stop-opacity="0.02"/>
<stop offset="0.14" stop-color="#D1DDEF" stop-opacity="0.27"/>
<stop offset="0.28" stop-color="#ACC2E1" stop-opacity="0.5"/>
<stop offset="0.43" stop-color="#8EACD6" stop-opacity="0.68"/>
<stop offset="0.57" stop-color="#769ACE" stop-opacity="0.82"/>
<stop offset="0.71" stop-color="#658EC8" stop-opacity="0.92"/>
<stop offset="0.85" stop-color="#5B86C4" stop-opacity="0.98"/>
<stop offset="1" stop-color="#5884C3"/>
</linearGradient>
<linearGradient id="paint2_linear_60_703" x1="-nan" y1="-nan" x2="-nan" y2="-nan" gradientUnits="userSpaceOnUse">
<stop stop-color="#4058A6"/>
<stop offset="0.25" stop-color="#415AA8" stop-opacity="0.97"/>
<stop offset="0.49" stop-color="#4562AD" stop-opacity="0.89"/>
<stop offset="0.72" stop-color="#4C6FB5" stop-opacity="0.74"/>
<stop offset="0.96" stop-color="#5680C0" stop-opacity="0.54"/>
<stop offset="1" stop-color="#5884C3" stop-opacity="0.5"/>
</linearGradient>
<linearGradient id="paint3_linear_60_703" x1="-nan" y1="-nan" x2="-nan" y2="-nan" gradientUnits="userSpaceOnUse">
<stop stop-color="#4058A6"/>
<stop offset="0.25" stop-color="#415AA8" stop-opacity="0.97"/>
<stop offset="0.49" stop-color="#4562AD" stop-opacity="0.89"/>
<stop offset="0.72" stop-color="#4C6FB5" stop-opacity="0.74"/>
<stop offset="0.96" stop-color="#5680C0" stop-opacity="0.54"/>
<stop offset="1" stop-color="#5884C3" stop-opacity="0.5"/>
</linearGradient>
<linearGradient id="paint4_linear_60_703" x1="542.995" y1="448.86" x2="1119.04" y2="448.86" gradientUnits="userSpaceOnUse">
<stop stop-color="white" stop-opacity="0"/>
<stop offset="0.1" stop-color="#FDE6E6" stop-opacity="0.15"/>
<stop offset="0.28" stop-color="#FABBBA" stop-opacity="0.4"/>
<stop offset="0.46" stop-color="#F79796" stop-opacity="0.62"/>
<stop offset="0.63" stop-color="#F57B79" stop-opacity="0.78"/>
<stop offset="0.78" stop-color="#F36765" stop-opacity="0.9"/>
<stop offset="0.91" stop-color="#F25A58" stop-opacity="0.97"/>
<stop offset="1" stop-color="#F25654"/>
</linearGradient>
<linearGradient id="paint5_linear_60_703" x1="2914.01" y1="753.434" x2="4053" y2="753.434" gradientUnits="userSpaceOnUse">
<stop stop-color="#4058A6"/>
<stop offset="1" stop-color="#5884C3" stop-opacity="0.1"/>
</linearGradient>
<linearGradient id="paint6_linear_60_703" x1="-nan" y1="-nan" x2="-nan" y2="-nan" gradientUnits="userSpaceOnUse">
<stop stop-color="#4058A6"/>
<stop offset="0.25" stop-color="#415AA8" stop-opacity="0.97"/>
<stop offset="0.49" stop-color="#4562AD" stop-opacity="0.89"/>
<stop offset="0.72" stop-color="#4C6FB5" stop-opacity="0.74"/>
<stop offset="0.96" stop-color="#5680C0" stop-opacity="0.54"/>
<stop offset="1" stop-color="#5884C3" stop-opacity="0.5"/>
</linearGradient>
<linearGradient id="paint7_linear_60_703" x1="-nan" y1="-nan" x2="-nan" y2="-nan" gradientUnits="userSpaceOnUse">
<stop stop-color="#4058A6"/>
<stop offset="0.25" stop-color="#415AA8" stop-opacity="0.97"/>
<stop offset="0.49" stop-color="#4562AD" stop-opacity="0.89"/>
<stop offset="0.72" stop-color="#4C6FB5" stop-opacity="0.74"/>
<stop offset="0.96" stop-color="#5680C0" stop-opacity="0.54"/>
<stop offset="1" stop-color="#5884C3" stop-opacity="0.5"/>
</linearGradient>
<linearGradient id="paint8_linear_60_703" x1="804.936" y1="2018.32" x2="1188.83" y2="2018.32" gradientUnits="userSpaceOnUse">
<stop stop-color="#4059A6"/>
<stop offset="1" stop-color="#5883C2" stop-opacity="0.1"/>
</linearGradient>
<linearGradient id="paint9_linear_60_703" x1="1129.81" y1="1981.02" x2="1193.25" y2="1981.02" gradientUnits="userSpaceOnUse">
<stop stop-color="#4059A6"/>
<stop offset="0.25" stop-color="#415BA8" stop-opacity="0.97"/>
<stop offset="0.48" stop-color="#4562AC" stop-opacity="0.89"/>
<stop offset="0.72" stop-color="#4C6EB4" stop-opacity="0.75"/>
<stop offset="0.95" stop-color="#567FBF" stop-opacity="0.55"/>
<stop offset="1" stop-color="#5883C2" stop-opacity="0.5"/>
</linearGradient>
<linearGradient id="paint10_linear_60_703" x1="1089.18" y1="1993.54" x2="1152.59" y2="1993.54" gradientUnits="userSpaceOnUse">
<stop stop-color="#4059A6"/>
<stop offset="0.25" stop-color="#415BA8" stop-opacity="0.97"/>
<stop offset="0.48" stop-color="#4562AC" stop-opacity="0.89"/>
<stop offset="0.72" stop-color="#4C6EB4" stop-opacity="0.75"/>
<stop offset="0.95" stop-color="#567FBF" stop-opacity="0.55"/>
<stop offset="1" stop-color="#5883C2" stop-opacity="0.5"/>
</linearGradient>
<linearGradient id="paint11_linear_60_703" x1="1046.95" y1="2006.13" x2="1110.39" y2="2006.13" gradientUnits="userSpaceOnUse">
<stop stop-color="#4059A6"/>
<stop offset="0.25" stop-color="#415BA8" stop-opacity="0.97"/>
<stop offset="0.48" stop-color="#4562AC" stop-opacity="0.89"/>
<stop offset="0.72" stop-color="#4C6EB4" stop-opacity="0.75"/>
<stop offset="0.95" stop-color="#567FBF" stop-opacity="0.55"/>
<stop offset="1" stop-color="#5883C2" stop-opacity="0.5"/>
</linearGradient>
</defs>
</svg>
