<svg width="671" height="467" viewBox="0 0 671 467" fill="none" xmlns="http://www.w3.org/2000/svg">
<path d="M335.133 0C80.7 0 4.23334 220.567 3.53334 222.8L1.06177 230.168C0.372618 232.223 0.369455 234.445 1.05275 236.502L3.5 243.867C4.23334 246.1 80.7 466.667 335.133 466.667C589.567 466.667 666.033 246.1 666.733 243.867L669.205 236.499C669.894 234.444 669.897 232.221 669.214 230.165L666.767 222.8C666.033 220.567 589.567 0 335.133 0ZM335.133 366.667C261.6 366.667 201.8 306.867 201.8 233.333C201.8 159.8 261.6 100 335.133 100C408.667 100 468.467 159.8 468.467 233.333C468.467 306.867 408.667 366.667 335.133 366.667Z" fill="white"/>
<path d="M335.133 166.667C299 166.667 268.467 197.2 268.467 233.333C268.467 269.467 299 300 335.133 300C371.267 300 401.8 269.467 401.8 233.333C401.8 197.2 371.267 166.667 335.133 166.667Z" fill="white"/>
</svg>
