<svg width="31" height="25" viewBox="0 0 31 25" fill="none" xmlns="http://www.w3.org/2000/svg">
<path fill-rule="evenodd" clip-rule="evenodd" d="M9.69317 24.4471C21.184 24.4471 27.4692 15.0735 27.4692 6.94571C27.4692 6.67888 27.4692 6.41405 27.4509 6.15022C28.6735 5.28078 29.7286 4.20126 30.5676 2.96606C29.4287 3.46374 28.2183 3.79013 26.9804 3.93402C28.2837 3.16502 29.2597 1.95687 29.7271 0.53129C28.4999 1.24783 27.1586 1.75353 25.7593 2.02486C23.3932 -0.451548 19.4361 -0.571531 16.9193 1.75797C15.2977 3.26 14.608 5.4995 15.112 7.63562C10.089 7.38679 5.40866 5.05133 2.23563 1.20931C0.57755 4.01999 1.42562 7.6143 4.17081 9.41914C3.17657 9.39065 2.20365 9.1271 1.33427 8.65042V8.72848C1.33579 11.6561 3.43237 14.1769 6.34656 14.757C5.42693 15.0044 4.46162 15.0403 3.52676 14.8619C4.34438 17.3683 6.69066 19.085 9.36277 19.1344C7.15048 20.8463 4.41747 21.7759 1.60376 21.7729C1.1074 21.7714 0.611046 21.7429 0.116211 21.6844C2.97407 23.4893 6.29784 24.4471 9.69317 24.4426" fill="white"/>
</svg>
