<svg width="512" height="508" viewBox="0 0 512 508" fill="none" xmlns="http://www.w3.org/2000/svg">
<path d="M442.17 335.59C448.06 322.52 463.44 316.7 476.51 322.59C489.58 328.48 495.4 343.85 489.51 356.92C469.11 402.05 435.99 440.22 394.71 466.87C354.72 492.69 307.12 507.67 256.08 507.67C185.37 507.67 121.35 479.01 75.01 432.67C28.67 386.33 0 322.3 0 251.59C0 193.6 19.32 140.08 51.88 97.1202C85.17 53.1902 132.39 20.3102 187.02 5.02023C200.82 1.21023 215.1 9.31023 218.91 23.1102C222.72 36.9102 214.63 51.1902 200.83 55.0002C157.46 67.1402 119.89 93.3402 93.32 128.4C67.39 162.61 52.01 205.29 52.01 251.59C52.01 307.95 74.85 358.97 111.78 395.9C148.7 432.82 199.72 455.67 256.08 455.67C296.88 455.67 334.85 443.74 366.68 423.19C399.53 401.98 425.92 371.56 442.17 335.59ZM227.15 358.18H285.01C296.45 358.18 305.83 348.8 305.83 337.36V263.49H346.53C353.46 263.19 358.39 260.89 361.23 256.57C368.95 245 358.42 233.57 351.11 225.52C330.37 202.76 279.55 148.07 269.32 136.03C261.56 127.45 250.52 127.45 242.76 136.03C232.19 148.37 178.82 205.56 159.1 227.7C152.26 235.4 143.81 245.91 150.93 256.57C153.84 260.89 158.71 263.19 165.65 263.49H206.33V337.36C206.33 348.8 215.7 358.18 227.15 358.18ZM296.45 51.5002C282.37 48.7002 273.23 35.0102 276.04 20.9302C278.84 6.85023 292.53 -2.28977 306.61 0.510231C364.7 12.1502 415.7 43.4602 452.37 87.2002C488.41 130.19 510.59 185.3 511.99 245.62C512.27 259.92 500.9 271.75 486.6 272.03C472.3 272.31 460.47 260.94 460.19 246.64C459.08 198.75 441.36 154.87 412.56 120.52C383.37 85.7102 342.74 60.7802 296.45 51.5002Z" fill="white"/>
</svg>
