<svg width="4919" height="3474" viewBox="0 0 4919 3474" fill="none" xmlns="http://www.w3.org/2000/svg">
<path fill-rule="evenodd" clip-rule="evenodd" d="M1275.39 2949.28C1275.39 2922.75 1297.87 2901.24 1325.6 2901.24H1426.65C1454.37 2901.24 1476.86 2922.75 1476.86 2949.28V3242.2C1476.86 3268.73 1454.37 3290.24 1426.65 3290.24H1325.6C1297.87 3290.24 1275.39 3268.73 1275.39 3242.2V2949.28Z" fill="#EEEEEE"/>
<path fill-rule="evenodd" clip-rule="evenodd" d="M1009.45 2814.11C1009.45 2801.37 1014.78 2789.15 1024.17 2780.14C1033.56 2771.13 1046.29 2766.07 1059.66 2766.07H1160.71C1173.98 2766.07 1186.81 2771.13 1196.2 2780.14C1205.59 2789.15 1210.92 2801.37 1210.92 2814.11V3242.2C1210.92 3254.94 1205.59 3267.16 1196.2 3276.17C1186.81 3285.18 1173.98 3290.24 1160.71 3290.24H1059.66C1046.29 3290.24 1033.56 3285.18 1024.17 3276.17C1014.78 3267.16 1009.45 3254.94 1009.45 3242.2V2814.11Z" fill="#EEEEEE"/>
<path fill-rule="evenodd" clip-rule="evenodd" d="M743.494 2393.22C743.494 2380.48 748.822 2368.27 758.213 2359.26C767.605 2350.25 780.338 2345.18 793.703 2345.18H894.754C908.028 2345.18 920.852 2350.25 930.244 2359.26C939.635 2368.27 944.963 2380.48 944.963 2393.22V3242.17C944.963 3254.93 939.635 3267.14 930.244 3276.15C920.852 3285.16 908.028 3290.22 894.754 3290.22H793.703C780.338 3290.22 767.605 3285.16 758.213 3276.15C748.822 3267.14 743.494 3254.93 743.494 3242.17V2393.22Z" fill="#EEEEEE"/>
<path fill-rule="evenodd" clip-rule="evenodd" d="M477.541 2739.57C477.541 2726.83 482.869 2714.61 492.261 2705.61C501.841 2696.51 514.553 2691.47 527.751 2691.53H628.801C642.076 2691.53 654.899 2696.59 664.291 2705.61C673.683 2714.61 679.011 2726.83 679.011 2739.57V3242.18C679.011 3254.93 673.683 3267.15 664.291 3276.16C654.701 3285.24 641.994 3290.27 628.801 3290.23H527.751C514.386 3290.23 501.652 3285.17 492.261 3276.16C482.869 3267.15 477.541 3254.93 477.541 3242.18V2739.57Z" fill="#EEEEEE"/>
<path fill-rule="evenodd" clip-rule="evenodd" d="M211.588 2637.46C211.588 2624.71 216.916 2612.49 226.307 2603.48C235.699 2594.47 248.433 2589.41 261.798 2589.41H362.848C376.123 2589.41 388.946 2594.47 398.338 2603.48C407.73 2612.49 413.058 2624.71 413.058 2637.46V3242.19C413.058 3254.93 407.73 3267.16 398.338 3276.17C388.946 3285.18 376.123 3290.23 362.848 3290.23H261.798C248.433 3290.23 235.699 3285.18 226.307 3276.17C216.916 3267.16 211.588 3254.93 211.588 3242.19V2637.46Z" fill="#EEEEEE"/>
<path fill-rule="evenodd" clip-rule="evenodd" d="M3569.03 3290.29C3595.12 3214.09 3843.93 3108.64 3907.54 3071.51C4197.64 2901.91 4503.04 2638.03 4448.3 2264.12C4366.24 1703.88 3643.68 1651.72 3293.82 1331.98C3108.62 1162.75 3113.95 942.422 3069.17 714.142C3022.7 477.355 2917.4 260.84 2696 144.303C2598.66 93.0517 2487.8 63.215 2377.79 59.7025C1973.36 46.7874 1670.44 368.206 1545.53 724.062C1473.97 927.886 1432.98 1196.94 1259.75 1345.86C1062.82 1515.17 669.65 1310.51 556.942 1592.24C509.08 1711.99 565.666 1857.28 644.716 1949.91C805.286 2137.99 1046.84 2210.09 1242.92 2350.7C1529.17 2556.05 1613.08 2963.2 1549.78 3290.29H3569.03Z" fill="#EEEEEE"/>
<path d="M727.815 1254.46C381.405 1254.46 100.586 973.64 100.586 627.23C100.586 280.821 381.405 0 727.815 0C1074.22 0 1355.04 280.821 1355.04 627.23C1355.04 973.64 1074.22 1254.46 727.815 1254.46Z" fill="#EEEEEE"/>
<path fill-rule="evenodd" clip-rule="evenodd" d="M3812.01 1186.28L3727.33 971.629C3727.33 971.629 2560.72 1314.93 2244.29 1813.62C1904.07 2349.78 2054.11 2939.31 2579.12 3129.25C3104.43 3319.3 3806.39 3038.45 4146.84 2501.93L4061.72 2287.12L3762.34 2362.82C3559.49 2682.5 3141.26 2849.84 2828.27 2736.6C2515.43 2623.42 2426.08 2272.18 2628.78 1952.72C2690.61 1855.29 2772.46 1772 2865.19 1706.51C3076.76 1557.08 3345.27 1500.2 3562.86 1578.93L3812.01 1186.28Z" fill="#4B7686"/>
<mask id="mask0_59_349" style="mask-type:luminance" maskUnits="userSpaceOnUse" x="2062" y="971" width="2085" height="2218">
<path d="M3812.01 1186.28L3727.33 971.629C3727.33 971.629 2560.72 1314.93 2244.29 1813.62C1904.07 2349.78 2054.11 2939.31 2579.12 3129.25C3104.43 3319.3 3806.39 3038.45 4146.84 2501.93L4061.72 2287.12L3762.34 2362.82C3559.49 2682.5 3141.26 2849.84 2828.27 2736.6C2515.43 2623.42 2426.08 2272.18 2628.78 1952.72C2690.61 1855.29 2772.46 1772 2865.19 1706.51C3076.76 1557.08 3345.27 1500.2 3562.86 1578.93L3812.01 1186.28Z" fill="white"/>
</mask>
<g mask="url(#mask0_59_349)">
<path fill-rule="evenodd" clip-rule="evenodd" d="M2365.7 1180.25L2430.37 2089.53L2574.72 2321.84L3694.3 1602.89L3888.01 987.682L3417.07 629.742L2365.7 1180.25Z" fill="#85B1C2"/>
</g>
<path fill-rule="evenodd" clip-rule="evenodd" d="M3726.84 971.456C3201.53 781.407 2499.57 1062.25 2159.12 1598.79C1818.9 2134.96 1968.93 2724.48 2493.95 2914.43C3019.26 3104.47 3721.22 2823.63 4061.67 2287.1L3677.17 2148C3474.32 2467.68 3056.09 2635.01 2743.1 2521.78C2430.26 2408.6 2340.91 2057.35 2543.61 1737.9C2746.46 1418.22 3164.7 1250.87 3477.69 1364.1L3726.84 971.456Z" fill="#6993A4"/>
<mask id="mask1_59_349" style="mask-type:luminance" maskUnits="userSpaceOnUse" x="1976" y="912" width="2086" height="2062">
<path d="M3726.84 971.456C3201.53 781.407 2499.57 1062.25 2159.12 1598.79C1818.9 2134.96 1968.93 2724.48 2493.95 2914.43C3019.26 3104.47 3721.22 2823.63 4061.67 2287.1L3677.17 2148C3474.32 2467.68 3056.09 2635.01 2743.1 2521.78C2430.26 2408.6 2340.91 2057.35 2543.61 1737.9C2746.46 1418.22 3164.7 1250.87 3477.69 1364.1L3726.84 971.456Z" fill="white"/>
</mask>
<g mask="url(#mask1_59_349)">
<path fill-rule="evenodd" clip-rule="evenodd" d="M1701.54 2161.37L2488.11 2091.52L3613.24 1502.17L3888.02 987.667L2992.57 170.314L1701.54 2161.37Z" fill="#A6D2E4"/>
</g>
<path fill-rule="evenodd" clip-rule="evenodd" d="M4473.79 2173.16C4606.35 1778 4489.07 1400.92 4172.2 1203.21L3434.73 1737.37L3488.04 1895.55C3539.4 1927.62 3590.62 2044.8 3569.06 2108.88L4473.79 2173.16Z" fill="#001320"/>
<path fill-rule="evenodd" clip-rule="evenodd" d="M4388.62 1958.34C4521.17 1563.19 4403.89 1186.1 4087.03 988.396L3435.08 1736.74C3486.43 1768.8 3505.45 1829.98 3483.88 1894.07L4388.62 1958.34Z" fill="#023341"/>
<path fill-rule="evenodd" clip-rule="evenodd" d="M3009.03 1246.68C2965.46 1413.66 2620.4 2234.34 2380.71 2245.86C2203.98 2254.33 1941.61 1765.99 1941.61 1765.99C1943.22 1742.58 1829.23 1599.9 1821.99 1561.3C1809.29 1493.59 1870.26 1429.92 1918.29 1423.37C1952.22 1418.82 1988.01 1513.15 1991.07 1497.18C2007.23 1412.64 2014.75 1401.81 2037.83 1394.26C2063.45 1385.82 2078.55 1624.71 2101.49 1637.69L2355.45 1688.42C2355.45 1688.42 2424.52 1357.27 2642.11 1243.97C2757.04 1184.11 3039.9 1128.34 3009.03 1246.68Z" fill="#FAD8BA"/>
<mask id="mask2_59_349" style="mask-type:luminance" maskUnits="userSpaceOnUse" x="1820" y="1177" width="1192" height="1069">
<path d="M3009.03 1246.68C2965.46 1413.66 2620.4 2234.34 2380.71 2245.86C2203.98 2254.33 1941.61 1765.99 1941.61 1765.99C1943.22 1742.58 1829.23 1599.9 1821.99 1561.3C1809.29 1493.59 1870.26 1429.92 1918.29 1423.37C1952.22 1418.82 1988.01 1513.15 1991.07 1497.18C2007.23 1412.64 2014.75 1401.81 2037.83 1394.26C2063.45 1385.82 2078.55 1624.71 2101.49 1637.69L2355.45 1688.42C2355.45 1688.42 2424.52 1357.27 2642.11 1243.97C2757.04 1184.11 3039.9 1128.34 3009.03 1246.68Z" fill="white"/>
</mask>
<g mask="url(#mask2_59_349)">
<path fill-rule="evenodd" clip-rule="evenodd" d="M2908.63 1729.03C2807.92 1728.59 2713.61 1715.7 2615.41 1691.42C2518.37 1667.4 2393.99 1631.93 2340.21 1538.44C2299.4 1467.5 2329.43 1384.44 2366.49 1318.57C2450.06 1170.01 2605.01 1054.16 2775.17 1029.09C2816.91 1022.91 2860.04 1023 2901.48 1031.5C2936.09 1038.65 2969.21 1051.67 2999.42 1070C3023.27 1084.44 3044.96 1102.17 3063.85 1122.68C3183.44 1253.19 3008.33 1605.11 2908.63 1729.03Z" fill="#F25C05"/>
</g>
<path fill-rule="evenodd" clip-rule="evenodd" d="M2810.47 1208.25C2868.91 1154.95 3421.11 1072.82 3521.07 1251.53C3621.1 1430.24 3410.5 2280.5 3410.5 2280.5L2587.25 1882.82C2587.25 1882.82 2696.17 1312.49 2810.47 1208.25Z" fill="#F25C05"/>
<mask id="mask3_59_349" style="mask-type:luminance" maskUnits="userSpaceOnUse" x="2587" y="1142" width="962" height="1139">
<path d="M2810.47 1208.25C2868.91 1154.95 3421.11 1072.82 3521.07 1251.53C3621.1 1430.24 3410.5 2280.5 3410.5 2280.5L2587.25 1882.82C2587.25 1882.82 2696.17 1312.49 2810.47 1208.25Z" fill="white"/>
</mask>
<g mask="url(#mask3_59_349)">
<path fill-rule="evenodd" clip-rule="evenodd" d="M3521.42 1870.45C3478.5 1877.82 3204.73 1574.53 3204.73 1574.53C3204.73 1574.53 3153.65 1672.97 3168.41 1812.7C3171.67 1843.58 3159.05 1881.37 3124.8 1890.45C3077.93 1902.91 2978.25 1804.58 2913.09 1784.87C2807.93 1753.09 2722.51 1753.17 2725.6 1821.71C2729.21 1899.76 2867.34 1985.88 2923.74 2029.95C3039.29 2120.13 3180.09 2187.73 3311.18 2252.36C3355.56 2274.26 3420.29 2312.19 3471.8 2293.64C3550.1 2265.42 3553.96 2131.14 3551.99 2064.97C3550.1 1999.19 3537.65 1934.04 3521.42 1870.45Z" fill="#D23F00"/>
</g>
<path fill-rule="evenodd" clip-rule="evenodd" d="M1822.97 2544.79C1663.7 2611.23 1563.09 2968.88 1509.48 3064.29C1469.69 3135.26 1577.75 3166.31 1577.75 3166.31C1756.98 3078.29 1978.74 2867.33 2019.61 2763.74C2044.95 2699.53 1894.34 2514.99 1822.97 2544.79Z" fill="#F29F05"/>
<mask id="mask4_59_349" style="mask-type:luminance" maskUnits="userSpaceOnUse" x="1500" y="2541" width="523" height="626">
<path d="M1822.97 2544.79C1663.7 2611.23 1563.09 2968.88 1509.48 3064.29C1469.69 3135.26 1577.75 3166.31 1577.75 3166.31C1756.98 3078.29 1978.74 2867.33 2019.61 2763.74C2044.95 2699.53 1894.34 2514.99 1822.97 2544.79Z" fill="white"/>
</mask>
<g mask="url(#mask4_59_349)">
<path fill-rule="evenodd" clip-rule="evenodd" d="M1529.56 2977.96C1596.18 3030.18 1795.29 3037.74 1903.76 2699.9C1920.97 2646.19 1907.07 2586.97 1890.84 2519.99C1879.7 2474.36 1988.02 2598.39 2004.51 2629.64C2048.86 2713.97 2040.66 2795.85 2021.66 2862.63C1981.03 3005.67 1871.99 3121.42 1744.4 3179.06C1688.13 3204.43 1617.53 3225.78 1540.91 3202.56C1433.1 3169.83 1378.16 3054.3 1373.51 2960.76C1365.57 2801.14 1434.03 3063.05 1529.56 2977.96Z" fill="#B16800"/>
</g>
<path fill-rule="evenodd" clip-rule="evenodd" d="M2236.15 2596.8C2056.65 2630.83 1859.82 2966.73 1780.08 3050.94C1720.87 3113.6 1822.53 3166.32 1822.53 3166.32C2030.43 3099.58 2309.26 2949.46 2378.21 2854.53C2420.94 2795.69 2316.59 2581.51 2236.15 2596.8Z" fill="#F29F05"/>
<mask id="mask5_59_349" style="mask-type:luminance" maskUnits="userSpaceOnUse" x="1761" y="2596" width="628" height="571">
<path d="M2236.15 2596.8C2056.65 2630.83 1859.82 2966.73 1780.08 3050.94C1720.87 3113.6 1822.53 3166.32 1822.53 3166.32C2030.43 3099.58 2309.26 2949.46 2378.21 2854.53C2420.94 2795.69 2316.59 2581.51 2236.15 2596.8Z" fill="white"/>
</mask>
<g mask="url(#mask5_59_349)">
<path fill-rule="evenodd" clip-rule="evenodd" d="M1823.32 2969.01C1877.25 3034.46 2077.69 3082.16 2277.29 2767.57C2308.98 2717.55 2310.51 2655.77 2311.71 2585.78C2312.45 2538.09 2389.8 2683.47 2398.3 2717.93C2421.1 2810.87 2391.11 2890.76 2354.14 2953.44C2275.02 3087.7 2133.56 3180.97 1988.6 3212.65C1924.68 3226.56 1847.26 3233.58 1775.49 3194.99C1674.52 3140.65 1649.21 3014.49 1669.21 2920.39C1703.33 2759.83 1703.7 3034.49 1823.32 2969.01Z" fill="#B16800"/>
</g>
<path fill-rule="evenodd" clip-rule="evenodd" d="M2659.15 2543C3220.96 2560.61 3120.58 2176.39 2997.17 2043.49C2873.76 1910.59 2165.46 1644.19 1918.72 1745.6C1671.98 1847.01 1516.74 2651.98 1516.74 2651.98C1651.61 2737.33 1771.36 2840.54 2074.82 2651.98L2256.31 2428.1C2256.31 2428.1 2491.29 2537.73 2659.15 2543Z" fill="#03222F"/>
<path fill-rule="evenodd" clip-rule="evenodd" d="M2937.06 2555.22C3498.87 2572.84 3431.25 2178.43 3314.37 2043.5C3197.49 1908.56 2494.71 1636.35 2235.92 1745.6C1977.14 1854.85 1761.59 2698.97 1761.59 2698.97C1896.39 2784.31 2108.28 2931.21 2411.81 2742.62L2515.5 2508.94C2515.5 2508.94 2769.27 2549.96 2937.06 2555.22Z" fill="#023341"/>
<mask id="mask6_59_349" style="mask-type:luminance" maskUnits="userSpaceOnUse" x="1761" y="1720" width="1634" height="1115">
<path d="M2937.06 2555.22C3498.87 2572.84 3431.25 2178.43 3314.37 2043.5C3197.49 1908.56 2494.71 1636.35 2235.92 1745.6C1977.14 1854.85 1761.59 2698.97 1761.59 2698.97C1896.39 2784.31 2108.28 2931.21 2411.81 2742.62L2515.5 2508.94C2515.5 2508.94 2769.27 2549.96 2937.06 2555.22Z" fill="white"/>
</mask>
<g mask="url(#mask6_59_349)">
<path fill-rule="evenodd" clip-rule="evenodd" d="M2846.65 1743.25C2967.53 1822.25 3076.21 1940.96 3135.88 2072.85C3170.13 2148.51 3179.4 2233.89 3084.02 2264.77C3063.42 2271.43 3041.36 2274.75 3019.89 2275.89C2962.63 2278.92 2904.08 2265.19 2848.28 2254.06C2785.78 2241.59 2719.94 2231.31 2658.9 2212.42C2628.08 2202.86 2604.55 2183.71 2580.34 2163.15C2575.45 2159 2560.34 2141.35 2552.62 2144.86C2541.11 2150.09 2540.17 2190.63 2536.56 2201.23C2524.63 2237.22 2498.96 2268.83 2469.94 2292.56C2385.12 2361.76 2271.37 2376 2185.09 2440.51C2081.22 2518.22 2017.69 2619.95 1901.96 2691.31C1644.93 2849.87 1521.82 2776.35 1484.99 2776.56C1399.31 2777.16 1370.3 2726.22 1404.03 2782.31C1437.86 2838.45 1507.57 2870.99 1567.84 2889.02C1712.41 2932.03 1877.75 2908.59 2017.69 2860.35C2117.27 2826.01 2215.83 2789.61 2318.59 2765.18C2456.12 2732.47 2597.17 2716.16 2737.88 2704.73C2961.09 2686.59 3212.63 2697.67 3420.73 2603.22C3465.37 2582.96 3507.35 2555.91 3543.41 2522.64C3567.1 2500.82 3588.39 2475.89 3604.96 2448.25C3720.68 2255.59 3106.34 1789.8 2846.65 1743.25Z" fill="#03222F"/>
</g>
<path fill-rule="evenodd" clip-rule="evenodd" d="M1844.21 1416.17C1832.31 1370.51 1861.42 1340.01 1909.14 1348.05L2560 1457.72C2607.72 1465.76 2656.12 1509.32 2668.02 1554.98L2765.91 1930.78C2777.81 1976.44 2748.69 2006.93 2700.98 1998.89L2050.12 1889.22C2002.4 1881.18 1954 1837.63 1942.11 1791.97L1844.21 1416.17Z" fill="#6993A4"/>
<path fill-rule="evenodd" clip-rule="evenodd" d="M1824.39 1436.68C1812.49 1391.01 1841.6 1360.51 1889.32 1368.55L2540.17 1478.22C2587.89 1486.26 2636.29 1529.82 2648.19 1575.49L2746.09 1951.28C2757.98 1996.95 2728.87 2027.43 2681.15 2019.39L2030.3 1909.72C1982.58 1901.68 1934.18 1858.14 1922.28 1812.47L1824.39 1436.68Z" fill="#A6D2E4"/>
<path fill-rule="evenodd" clip-rule="evenodd" d="M3526.62 1259.78C3588.83 1420.75 3788.36 2288.37 3600.58 2437.78C3462.11 2547.92 2854.83 2081.78 2854.83 2081.78C2842.47 2061.85 2666.59 2012.67 2638.16 1985.57C2588.28 1938.05 2600.56 1850.74 2635.71 1817.37C2660.58 1793.85 2744.75 1849.49 2737.9 1834.74C2701.62 1756.68 2701.39 1743.5 2715.66 1723.83C2731.57 1702.07 2883.41 1887.11 2909.61 1884.24L3254.36 2000.17C3254.36 2000.17 3116.91 1691.08 3227.28 1471.99C3285.56 1356.25 3482.52 1145.7 3526.62 1259.78Z" fill="#FAD8BA"/>
<mask id="mask7_59_349" style="mask-type:luminance" maskUnits="userSpaceOnUse" x="2604" y="1226" width="1076" height="1229">
<path d="M3526.62 1259.78C3588.83 1420.75 3788.36 2288.37 3600.58 2437.78C3462.11 2547.92 2854.83 2081.78 2854.83 2081.78C2842.47 2061.85 2666.59 2012.67 2638.16 1985.57C2588.28 1938.05 2600.56 1850.74 2635.71 1817.37C2660.58 1793.85 2744.75 1849.49 2737.9 1834.74C2701.62 1756.68 2701.39 1743.5 2715.66 1723.83C2731.57 1702.07 2883.41 1887.11 2909.61 1884.24L3254.36 2000.17C3254.36 2000.17 3116.91 1691.08 3227.28 1471.99C3285.56 1356.25 3482.52 1145.7 3526.62 1259.78Z" fill="white"/>
</mask>
<g mask="url(#mask7_59_349)">
<path fill-rule="evenodd" clip-rule="evenodd" d="M3358.96 1856.96C3361.6 1885.07 3526.29 1837.97 3590.04 2071.14C3616.21 2166.91 3596.68 2277.68 3549.84 2318.56C3486.65 2373.78 3381.61 2329.59 3315.33 2304.38C3188.63 2256.29 3058.04 2193.52 2951.83 2108.28C2924.58 2086.39 2900.7 2060.94 2879.36 2033.33C2869.58 2020.64 2859.52 1996.59 2845.6 1988.22C2832.57 1980.43 2818.19 1999.5 2807.44 2004.97C2788.01 2014.75 2772.57 2014.83 2751.47 2009.78C2699.92 1997.59 2651.46 1975.2 2619.04 1932C2605.44 1913.93 2597.22 1892.78 2584.16 1874.46C2579.18 1867.41 2568.52 1859.62 2564.66 1872.05C2556.92 1897.18 2569.58 1932.08 2577.58 1955.47C2606.64 2040.29 2673.89 2110.85 2739.39 2169.31C2904.05 2316.15 3114.79 2425.19 3324.6 2490.45C3428.64 2522.87 3549.26 2545.34 3656.36 2513.5C3857.56 2453.8 3870.05 2192.69 3846.86 2020.72C3841.47 1980.67 3833.26 1941.12 3822.21 1902.32C3810.15 1859.95 3794.52 1818.57 3774.44 1779.35C3727.52 1687.73 3641.23 1595.77 3528.81 1608.05C3502.13 1611.03 3383.02 1845.44 3358.96 1856.96Z" fill="#D7B699"/>
<path fill-rule="evenodd" clip-rule="evenodd" d="M3727 1709.88C3645.01 1768.37 3560.95 1813.03 3467.07 1850.7C3374.28 1887.91 3252.62 1931.8 3154.35 1887.37C3079.77 1853.64 3055.61 1768.69 3047.2 1693.58C3028.21 1524.18 3086.26 1339.63 3209.7 1219.85C3239.96 1190.45 3275.01 1165.32 3313.61 1148C3345.87 1133.58 3380.36 1124.79 3415.58 1122.01C3443.37 1119.79 3471.34 1121.51 3498.65 1127.12C3671.96 1163.15 3735.49 1551.06 3727 1709.88Z" fill="#F25C05"/>
</g>
<path fill-rule="evenodd" clip-rule="evenodd" d="M3084.79 983.193L3225.01 991.937C3214.72 1046.8 3220.62 1097.46 3241.11 1144.3C3123.07 1338.27 3047.78 1345.67 3042.55 1143.93C3103.85 1106.25 3096.85 1033.01 3084.79 983.193Z" fill="#FAD8BA"/>
<mask id="mask8_59_349" style="mask-type:luminance" maskUnits="userSpaceOnUse" x="3042" y="983" width="200" height="310">
<path d="M3084.79 983.193L3225.01 991.937C3214.72 1046.8 3220.62 1097.46 3241.11 1144.3C3123.07 1338.27 3047.78 1345.67 3042.55 1143.93C3103.85 1106.25 3096.85 1033.01 3084.79 983.193Z" fill="white"/>
</mask>
<g mask="url(#mask8_59_349)">
<path fill-rule="evenodd" clip-rule="evenodd" d="M3068.21 1055.21C3081.68 1078.86 3099.76 1100.79 3120.86 1118.06C3136.69 1131 3154.24 1143.27 3172.66 1152.06C3189.7 1160.2 3209.31 1166.49 3228.35 1163.5C3267.36 1157.4 3286.45 1113.9 3284.42 1078.13C3280.14 1002.87 3204.9 940.566 3130.49 961.682C3107.49 968.211 3084.48 1037.87 3068.21 1055.21Z" fill="#D7B699"/>
</g>
<path fill-rule="evenodd" clip-rule="evenodd" d="M3167.19 761.709C3098.34 761.709 3042.49 826.589 3042.49 906.502C3042.49 986.423 3051.5 1078.72 3120.35 1078.72C3189.19 1078.72 3291.88 986.423 3291.88 906.502C3291.88 826.589 3236.03 761.709 3167.19 761.709Z" fill="#FAD8BA"/>
<path fill-rule="evenodd" clip-rule="evenodd" d="M3212.27 866.503C3207.28 859.949 3184.86 875.027 3172.97 876.742C3129.31 883.015 3080.83 873.892 3047.07 844.028C3031.82 830.512 3029.37 807.919 3031.36 786.815C3036.08 736.463 3090.55 699.302 3139.02 703.187C3194.21 707.608 3228.43 754.491 3266.28 788.558C3286.52 806.757 3310.49 823.387 3321.65 849.157C3339.81 891.112 3306.67 924.706 3285.16 956.839C3277.81 967.813 3268.1 988.51 3252.85 989.617C3242.04 990.398 3242.77 978.761 3243.59 971.136C3245.04 958.555 3253.21 923.335 3233.6 919.305C3219.35 916.364 3213.18 938.585 3209.64 948.062C3208.1 952.146 3205.55 960.751 3199.65 959.707C3194.84 958.854 3193.03 952.4 3192.66 948.307C3191.76 936.888 3197.02 925.587 3202.65 916.01C3207.28 908.331 3217.17 873.048 3212.27 866.503Z" fill="#001320"/>
<path fill-rule="evenodd" clip-rule="evenodd" d="M801.67 473.533C986.404 473.533 1136.24 623.311 1136.24 808.075C1136.24 992.708 986.326 1142.61 801.67 1142.61C616.937 1142.61 467.175 992.832 467.175 808.075H634.384C634.384 900.45 709.265 975.339 801.67 975.339C893.998 975.339 968.957 900.388 968.957 808.075C968.957 715.693 894.076 640.804 801.67 640.804V473.533Z" fill="white"/>
<path fill-rule="evenodd" clip-rule="evenodd" d="M477.288 726.307C492.059 667.727 522.413 614.239 565.132 571.521C607.851 528.802 661.339 498.446 719.919 483.676L760.756 645.875C731.471 653.261 704.731 668.439 683.378 689.799C662.025 711.159 646.855 737.903 639.479 767.191L477.288 726.307Z" fill="#A6D2E4"/>
<path fill-rule="evenodd" clip-rule="evenodd" d="M3663.02 3281.53H128.511V3304.74H3663.02V3281.53Z" fill="#03222F"/>
<path fill-rule="evenodd" clip-rule="evenodd" d="M4159.72 3284.43H3781.02V3309.1H4159.72V3284.43Z" fill="#03222F"/>
<path fill-rule="evenodd" clip-rule="evenodd" d="M418.01 3284.93C420.372 3289.45 425.754 3291.42 430.479 3289.52C432.762 3288.6 434.618 3286.85 435.686 3284.63C436.753 3282.41 436.956 3279.87 436.254 3277.51C431.988 3261.7 426.804 3246.14 421.685 3230.92C383.689 3117.71 328.957 3016.06 231.964 2943.06C184.845 2907.61 120.927 2874.41 59.8305 2882.78C30.89 2886.74 -1.39723 2903.45 0.0465155 2936.9C2.54025 2996.7 74.268 3043.43 118.105 3072.5C203.746 3129.33 348.054 3189.9 418.01 3284.93Z" fill="#6993A4"/>
<mask id="mask9_59_349" style="mask-type:luminance" maskUnits="userSpaceOnUse" x="0" y="2881" width="437" height="410">
<path d="M418.01 3284.93C420.372 3289.45 425.754 3291.42 430.479 3289.52C432.762 3288.6 434.618 3286.85 435.686 3284.63C436.753 3282.41 436.956 3279.87 436.254 3277.51C431.988 3261.7 426.804 3246.14 421.685 3230.92C383.689 3117.71 328.957 3016.06 231.964 2943.06C184.845 2907.61 120.927 2874.41 59.8305 2882.78C30.89 2886.74 -1.39723 2903.45 0.0465155 2936.9C2.54025 2996.7 74.268 3043.43 118.105 3072.5C203.746 3129.33 348.054 3189.9 418.01 3284.93Z" fill="white"/>
</mask>
<g mask="url(#mask9_59_349)">
<path fill-rule="evenodd" clip-rule="evenodd" d="M26.3351 2852.02C18.1352 2872.46 21.6039 2896.66 25.8616 2917.56C29.6462 2936.4 34.9289 2955.56 44.6269 2972.28C79.7919 3032.67 153.749 3058.06 219.191 3068C248.758 3072.49 296.145 3075.49 319.325 3051.2C335.252 3034.49 323.74 3018.4 322.794 2999.64C322.557 2994.67 326.5 2993.49 330.678 2994.75C353.307 3001.37 372.703 3033.62 384.845 3051.52C421.272 3105.52 444.531 3170.89 454.151 3235.15C457.541 3257.78 462.587 3289.39 448 3309.42C429.708 3334.57 388.078 3315.33 366.868 3305.4C360.718 3302.48 354.569 3299.41 348.498 3296.25C341.48 3292.63 334.463 3288.84 327.603 3285.06C316.801 3279.14 306.236 3272.84 295.749 3266.53C231.648 3228.21 -74.6663 3069.02 -115.035 2993.72C-157.139 2915.11 -46.4392 2878.69 26.3351 2852.02Z" fill="#477282"/>
</g>
<path fill-rule="evenodd" clip-rule="evenodd" d="M508.153 3278.29C506.704 3280.93 504.331 3282.93 501.491 3283.92C498.65 3284.91 495.544 3284.82 492.77 3283.65C489.997 3282.49 487.752 3280.34 486.469 3277.62C485.187 3274.9 484.957 3271.8 485.824 3268.92C489.997 3253.4 495.121 3238.17 500.099 3223.24C542.486 3096.96 603.542 2983.56 711.742 2902.12C764.305 2862.57 835.609 2825.54 903.765 2834.88C936.05 2839.29 972.068 2857.93 970.457 2895.25C967.675 2961.96 887.66 3014.08 838.757 3046.51C744.832 3108.89 587.51 3175.29 508.153 3278.29Z" fill="#6993A4"/>
<mask id="mask10_59_349" style="mask-type:luminance" maskUnits="userSpaceOnUse" x="485" y="2833" width="486" height="452">
<path d="M508.153 3278.29C506.704 3280.93 504.331 3282.93 501.491 3283.92C498.65 3284.91 495.544 3284.82 492.77 3283.65C489.997 3282.49 487.752 3280.34 486.469 3277.62C485.187 3274.9 484.957 3271.8 485.824 3268.92C489.997 3253.4 495.121 3238.17 500.099 3223.24C542.486 3096.96 603.542 2983.56 711.742 2902.12C764.305 2862.57 835.609 2825.54 903.765 2834.88C936.05 2839.29 972.068 2857.93 970.457 2895.25C967.675 2961.96 887.66 3014.08 838.757 3046.51C744.832 3108.89 587.51 3175.29 508.153 3278.29Z" fill="white"/>
</mask>
<g mask="url(#mask10_59_349)">
<path fill-rule="evenodd" clip-rule="evenodd" d="M941.131 2800.56C950.279 2823.36 946.409 2850.36 941.66 2873.67C937.438 2894.69 931.545 2916.07 920.726 2934.71C881.498 3002.09 798.995 3030.41 725.992 3041.49C693.008 3046.5 640.146 3049.85 614.287 3022.76C596.52 3004.11 609.362 2986.17 610.417 2965.23C610.681 2959.69 606.284 2958.37 601.622 2959.78C576.379 2967.17 554.741 3003.14 541.196 3023.11C500.561 3083.36 474.613 3156.27 463.883 3227.96C460.101 3253.2 454.472 3288.47 470.743 3310.81C491.149 3338.87 537.59 3317.41 561.25 3306.33C568.111 3303.07 574.971 3299.64 581.744 3296.12C589.572 3292.08 597.4 3287.86 605.052 3283.63C617.102 3277.04 628.889 3270 640.587 3262.96C712.095 3220.22 1053.8 3042.63 1098.84 2958.64C1145.81 2870.94 1022.31 2830.31 941.131 2800.56Z" fill="#477282"/>
</g>
<path fill-rule="evenodd" clip-rule="evenodd" d="M473.064 3274.96C473.783 3279.2 471.083 3283.2 466.969 3284.28C462.855 3285.36 458.564 3283.06 457.202 3279.02C445.708 3244.86 436.998 3209.59 428.598 3175.33C388.623 3012.55 377.168 2850.9 437.35 2691.48C466.595 2614.05 517.453 2526.67 596.192 2490.71C633.482 2473.66 684.319 2469.22 707.732 2509.97C749.697 2582.76 699.738 2692.04 669.592 2759.44C606.142 2901.48 465.091 3099.87 473.064 3274.96Z" fill="#6993A4"/>
<mask id="mask11_59_349" style="mask-type:luminance" maskUnits="userSpaceOnUse" x="395" y="2478" width="329" height="807">
<path d="M473.064 3274.96C473.783 3279.2 471.083 3283.2 466.969 3284.28C462.855 3285.36 458.564 3283.06 457.202 3279.02C445.708 3244.86 436.998 3209.59 428.598 3175.33C388.623 3012.55 377.168 2850.9 437.35 2691.48C466.595 2614.05 517.453 2526.67 596.192 2490.71C633.482 2473.66 684.319 2469.22 707.732 2509.97C749.697 2582.76 699.738 2692.04 669.592 2759.44C606.142 2901.48 465.091 3099.87 473.064 3274.96Z" fill="white"/>
</mask>
<g mask="url(#mask11_59_349)">
<path fill-rule="evenodd" clip-rule="evenodd" d="M612.804 2429.07C637.879 2447.14 651.947 2478.45 662.593 2506.42C672.26 2531.61 680.387 2558.3 681.442 2585.41C685.109 2683.44 616.481 2769.1 546.341 2830.03C514.656 2857.57 460.715 2896.72 414.986 2885.34C383.544 2877.48 385.113 2849.76 372.139 2826.79C368.688 2820.73 363.125 2822.28 359.118 2826.92C337.259 2851.77 338.482 2904.58 337.527 2934.92C334.901 3026.33 356.417 3121.31 393.278 3204.73C406.255 3234.11 424.021 3275.4 456.361 3288.19C496.945 3304.27 531.86 3250.19 549.548 3222.48C554.65 3214.4 559.632 3206.13 564.462 3197.83C570.059 3188.26 575.537 3178.5 580.829 3168.86C589.196 3153.74 596.987 3138.32 604.684 3122.96C651.913 3029.37 895.571 2610.52 886.881 2490.91C877.761 2366.07 719.131 2406.02 612.804 2429.07Z" fill="#477282"/>
</g>
</svg>
